<svg id="Layer_1" data-name="Layer 1" xmlns="http://www.w3.org/2000/svg" xmlns:xlink="http://www.w3.org/1999/xlink" viewBox="0 0 12 12"><defs><style>.cls-1{fill:url(#radial-gradient);}.cls-2{fill:#fff;}.cls-3{fill:#2b9c2f;}.cls-4{fill:#c62935;}</style><radialGradient id="radial-gradient" cx="-26.52" cy="-70.08" r="177.74" gradientTransform="translate(5.67 5.67) scale(0.05)" gradientUnits="userSpaceOnUse"><stop offset="0" stop-color="#f2f2f2"/><stop offset="0.47" stop-color="#999"/><stop offset="1" stop-color="#333"/></radialGradient></defs><title>12 x 12</title><circle class="cls-1" cx="6" cy="6" r="5.75"/><path class="cls-2" d="M6.07,6.11A6.49,6.49,0,0,1,1.88,3.25c.13,0,.32-.08.36-.28,0,0,0,0,0-.06A6,6,0,0,0,6.43,5.82a5.94,5.94,0,0,0,5.06-1.13A6,6,0,0,1,6.07,6.11Z"/><circle class="cls-2" cx="1.83" cy="2.78" r="0.5"/><circle class="cls-2" cx="11.14" cy="4.92" r="0.5"/><circle class="cls-3" cx="11.14" cy="4.92" r="0.43"/><circle class="cls-4" cx="1.83" cy="2.78" r="0.43"/></svg>