<svg id="Layer_1" data-name="Layer 1" xmlns="http://www.w3.org/2000/svg" xmlns:xlink="http://www.w3.org/1999/xlink" viewBox="0 0 16 16"><defs><style>.cls-1{fill:url(#radial-gradient);}.cls-2{fill:#fff;}.cls-3{fill:#2b9c2f;}.cls-4{fill:#c62935;}</style><radialGradient id="radial-gradient" cx="-35.82" cy="-94.54" r="239.56" gradientTransform="translate(7.56 7.56) scale(0.05)" gradientUnits="userSpaceOnUse"><stop offset="0" stop-color="#f2f2f2"/><stop offset="0.47" stop-color="#999"/><stop offset="1" stop-color="#333"/></radialGradient></defs><title>16x16</title><circle class="cls-1" cx="8" cy="8" r="7.75"/><path class="cls-2" d="M8.09,8.14A8.66,8.66,0,0,1,2.45,4.3c.18,0,.43-.11.48-.38a.25.25,0,0,0,0-.08A8.09,8.09,0,0,0,8.58,7.76,8,8,0,0,0,15.4,6.23,8,8,0,0,1,8.09,8.14Z"/><circle class="cls-2" cx="2.38" cy="3.66" r="0.67"/><circle class="cls-2" cx="14.93" cy="6.55" r="0.67"/><circle class="cls-3" cx="14.93" cy="6.55" r="0.58"/><circle class="cls-4" cx="2.38" cy="3.66" r="0.58"/></svg>