<svg id="Layer_1" data-name="Layer 1" xmlns="http://www.w3.org/2000/svg" viewBox="0 0 225.14 48"><defs><style>.cls-1{fill:#299fc7;}.cls-2{fill:#c62935;}.cls-3{fill:#2b9c2f;}</style></defs><title>logo 48</title><path d="M3.86,40.85a10.12,10.12,0,0,1-1.46-2.7,8.36,8.36,0,0,1-.51-2.81,7.91,7.91,0,0,1,.53-2.78,9.29,9.29,0,0,1,1.51-2.63A8.85,8.85,0,0,1,9.78,26.7a12.76,12.76,0,0,1,1.9-.15,8.81,8.81,0,0,1,2.34.29,5.7,5.7,0,0,1,1.7.76,3.56,3.56,0,0,1,1,1,2.36,2.36,0,0,1,.33,1.2,2.2,2.2,0,0,1-.48,1.44,2.36,2.36,0,0,1-.75.69,2.08,2.08,0,0,1-1,.2,6.11,6.11,0,0,1-.82,0,9.66,9.66,0,0,1-1.68-.51,4.85,4.85,0,0,0-1.27-.14,3.67,3.67,0,0,0-2.37.8,4,4,0,0,0-1.32,2.32,4.37,4.37,0,0,0-.07.76,5.51,5.51,0,0,0,.07.79A4.88,4.88,0,0,0,8,37.85a2.84,2.84,0,0,0,1.15,1,3.66,3.66,0,0,0,1.63.35,8.83,8.83,0,0,0,2.75-.55l.1,0,.14,0a4.18,4.18,0,0,1,.89-.1,2.27,2.27,0,0,1,2.41,2.25,2.63,2.63,0,0,1-.5,1.49,4.58,4.58,0,0,1-2.32,1.6,7.82,7.82,0,0,1-2.9.48,12.78,12.78,0,0,1-1.8-.14,8.67,8.67,0,0,1-4.33-1.94A10.14,10.14,0,0,1,3.86,40.85Z" transform="translate(-1.89 -2.3)"/><path d="M25,44.44a7.28,7.28,0,0,1-3.59-.91,6.67,6.67,0,0,1-2.55-2.45A6.47,6.47,0,0,1,18,37.69a6.66,6.66,0,0,1,.93-3.42,6.85,6.85,0,0,1,2.56-2.51,7.2,7.2,0,0,1,3.6-.92,7.38,7.38,0,0,1,2.61.45,7.14,7.14,0,0,1,2.16,1.28,6.66,6.66,0,0,1,1,1.1,6.77,6.77,0,0,1,.72,1.24A5.74,5.74,0,0,1,32,36.24a7.18,7.18,0,0,1,.14,1.38,6.77,6.77,0,0,1-.39,2.27,6.3,6.3,0,0,1-1.18,2,7,7,0,0,1-1.88,1.56A7.28,7.28,0,0,1,25,44.44Zm-1.87-6.77a2.43,2.43,0,0,0,.54,1.63,1.69,1.69,0,0,0,1.33.63l.36-.06a1.79,1.79,0,0,0,1.47-1.7,4.54,4.54,0,0,0,0-.52,2.08,2.08,0,0,0-.31-1.17,1.75,1.75,0,0,0-3.12,0A2.22,2.22,0,0,0,23.17,37.67Z" transform="translate(-1.89 -2.3)"/><path d="M34.07,43.59a2.71,2.71,0,0,1-.77-1.92V33.62A2.61,2.61,0,0,1,36,30.94l2.1,1.31v-.09a3.36,3.36,0,0,1,.34-.25,6.23,6.23,0,0,1,3.25-1,6.1,6.1,0,0,1,1.15.13,5.12,5.12,0,0,1,2.06.9,4.37,4.37,0,0,1,1.36,1.58,4.28,4.28,0,0,1,.47,1.95v6.2A2.61,2.61,0,0,1,46.32,43a2.68,2.68,0,0,1-4.22.57,2.54,2.54,0,0,1-.79-1.9v-5a1.25,1.25,0,0,0-.4-.94A1.18,1.18,0,0,0,40,35.3a1.23,1.23,0,0,0-.93.38,1.41,1.41,0,0,0-.41,1v5a2.62,2.62,0,0,1-.8,1.92,2.53,2.53,0,0,1-1.86.76A2.65,2.65,0,0,1,34.07,43.59Z" transform="translate(-1.89 -2.3)"/><path d="M48.84,43.59a2.71,2.71,0,0,1-.77-1.92V33.62a2.61,2.61,0,0,1,2.64-2.68l2.11,1.31v-.09a2.47,2.47,0,0,1,.34-.25,6.21,6.21,0,0,1,3.25-1,6.1,6.1,0,0,1,1.15.13,5.12,5.12,0,0,1,2.06.9A4.47,4.47,0,0,1,61,33.52a4.27,4.27,0,0,1,.46,1.95v6.2A2.6,2.6,0,0,1,61.09,43a2.68,2.68,0,0,1-4.22.57,2.54,2.54,0,0,1-.8-1.9v-5a1.24,1.24,0,0,0-.39-.94,1.19,1.19,0,0,0-.94-.43,1.24,1.24,0,0,0-.94.38,1.45,1.45,0,0,0-.41,1v5a2.61,2.61,0,0,1-.79,1.92,2.53,2.53,0,0,1-1.86.76A2.63,2.63,0,0,1,48.84,43.59Z" transform="translate(-1.89 -2.3)"/><path d="M76.62,36.78a2.24,2.24,0,0,1-.5,1.65,2.41,2.41,0,0,1-1.68.48H68.21a4.64,4.64,0,0,0,.43.46,2.8,2.8,0,0,0,.65.38,4,4,0,0,0,.84.2A9.21,9.21,0,0,0,71.4,40a8.18,8.18,0,0,0,1.84-.34,6,6,0,0,1,1.2-.21A2.11,2.11,0,0,1,76,40a1.82,1.82,0,0,1,.57,1.36,1.78,1.78,0,0,1,0,.46,2.45,2.45,0,0,1-.4.79,2.66,2.66,0,0,1-.73.63,7.57,7.57,0,0,1-1.27.57,12.39,12.39,0,0,1-3.64.52,9.63,9.63,0,0,1-3.2-.51,7.42,7.42,0,0,1-2.5-1.44,6.24,6.24,0,0,1-1.58-2.2,7.11,7.11,0,0,1-.53-2.76,6.42,6.42,0,0,1,.59-2.54,6.65,6.65,0,0,1,1.49-2.08A6.9,6.9,0,0,1,67,31.45a7.57,7.57,0,0,1,2.8-.51,7.34,7.34,0,0,1,3.57.93A6.64,6.64,0,0,1,75,33.25,7,7,0,0,1,76.17,35,4.68,4.68,0,0,1,76.62,36.78Zm-8.37-.48h2.86a1.4,1.4,0,0,0,0-.23c-.12-.77-.66-1.16-1.63-1.16a1.58,1.58,0,0,0-1.16,1.18A1,1,0,0,0,68.25,36.3Z" transform="translate(-1.89 -2.3)"/><path d="M78.86,41.58a6.66,6.66,0,0,1-1.35-4A6.16,6.16,0,0,1,78,35.42a7,7,0,0,1,1.18-2,7.47,7.47,0,0,1,1-1,6.56,6.56,0,0,1,2-1,8.42,8.42,0,0,1,2.49-.35,10.39,10.39,0,0,1,1.13.05q4,.41,4,3.27a2.19,2.19,0,0,1-.78,1.4,2.43,2.43,0,0,1-1.59.52,2.1,2.1,0,0,1-.41,0l-.12,0-.62-.14L86,36l-.5-.1a3.21,3.21,0,0,0-.64-.05,2.09,2.09,0,0,0-1.5.52,1.86,1.86,0,0,0-.3,2.28,1.91,1.91,0,0,0,.66.63,2.15,2.15,0,0,0,1.07.27,6.1,6.1,0,0,0,.76-.07h.07l.84-.2a4.68,4.68,0,0,1,.91-.12,2.48,2.48,0,0,1,1.85.7,2.71,2.71,0,0,1,.67,1.93,2.24,2.24,0,0,1-.67,1.34,3.71,3.71,0,0,1-1.67.89,10.24,10.24,0,0,1-2.74.31,8.41,8.41,0,0,1-3.46-.73A6.22,6.22,0,0,1,78.86,41.58Z" transform="translate(-1.89 -2.3)"/><path d="M90.3,31.7a2.39,2.39,0,0,1,1.64-.62h.23V29.93A2.73,2.73,0,0,1,93,28a2.54,2.54,0,0,1,1.86-.77,2.59,2.59,0,0,1,1.89.8,2.79,2.79,0,0,1,.8,2v1.1h.3a2.19,2.19,0,0,1,1.58.65,2.15,2.15,0,0,1,.68,1.6,2,2,0,0,1-.07.53,2.1,2.1,0,0,1-.21.52,2.61,2.61,0,0,1-.34.46,2.39,2.39,0,0,1-1.64.73H97.5v6.08a2.65,2.65,0,0,1-.8,1.94,2.46,2.46,0,0,1-1.87.79A2.54,2.54,0,0,1,93,43.59a2.7,2.7,0,0,1-.8-2V35.52H92a2.34,2.34,0,0,1-1.73-.73,2,2,0,0,1-.62-1.48A2.13,2.13,0,0,1,90.3,31.7Z" transform="translate(-1.89 -2.3)"/><path d="M100.84,29.57a2.77,2.77,0,0,1-.82-2,2.88,2.88,0,0,1,1.76-2.65,2.73,2.73,0,0,1,1-.21,2.64,2.64,0,0,1,2,.87,2.79,2.79,0,0,1,.81,2,2.81,2.81,0,0,1-4.79,2Zm2,14.81A2.57,2.57,0,0,1,101,43.6a2.61,2.61,0,0,1-.77-1.9V33.62a2.63,2.63,0,0,1,1.32-2.32,2.63,2.63,0,0,1,1.36-.36,2.7,2.7,0,0,1,1.33.38,2.65,2.65,0,0,1,1,1,2.7,2.7,0,0,1,.35,1.36v8a2.61,2.61,0,0,1-.78,1.92A2.57,2.57,0,0,1,102.83,44.38Z" transform="translate(-1.89 -2.3)"/><path d="M113.83,44.44a7.24,7.24,0,0,1-3.58-.91,6.7,6.7,0,0,1-2.56-2.45,6.47,6.47,0,0,1-1-3.39,6.66,6.66,0,0,1,.93-3.42,6.85,6.85,0,0,1,2.56-2.51,7.2,7.2,0,0,1,3.6-.92,7.38,7.38,0,0,1,2.61.45,7.07,7.07,0,0,1,2.17,1.28,6.59,6.59,0,0,1,1,1.1,7.46,7.46,0,0,1,.73,1.24,6.23,6.23,0,0,1,.42,1.33,6.46,6.46,0,0,1,.14,1.38,6.77,6.77,0,0,1-.39,2.27,6.45,6.45,0,0,1-1.17,2,7.16,7.16,0,0,1-1.89,1.56A7.28,7.28,0,0,1,113.83,44.44ZM112,37.67a2.43,2.43,0,0,0,.54,1.63,1.71,1.71,0,0,0,1.33.63l.37-.06a1.78,1.78,0,0,0,1.46-1.7,4.54,4.54,0,0,0,0-.52,2.08,2.08,0,0,0-.31-1.17,1.74,1.74,0,0,0-3.11,0A2.23,2.23,0,0,0,112,37.67Z" transform="translate(-1.89 -2.3)"/><path d="M122.87,43.59a2.67,2.67,0,0,1-.78-1.92V33.62a2.61,2.61,0,0,1,2.65-2.68l2.1,1.31v-.09a3.36,3.36,0,0,1,.34-.25,6.24,6.24,0,0,1,3.26-1,6.09,6.09,0,0,1,1.14.13,5.12,5.12,0,0,1,2.06.9,4.35,4.35,0,0,1,1.83,3.53v6.2a2.61,2.61,0,0,1-.36,1.36,2.71,2.71,0,0,1-2.3,1.35,2.64,2.64,0,0,1-1.92-.78,2.54,2.54,0,0,1-.79-1.9v-5a1.25,1.25,0,0,0-.4-.94,1.18,1.18,0,0,0-.94-.43,1.23,1.23,0,0,0-.93.38,1.41,1.41,0,0,0-.41,1v5a2.62,2.62,0,0,1-.8,1.92,2.5,2.5,0,0,1-1.86.76A2.63,2.63,0,0,1,122.87,43.59Z" transform="translate(-1.89 -2.3)"/><path d="M145,43.35a3.79,3.79,0,0,1-1.25-1.11,2.72,2.72,0,0,1-.33-1.41,2.46,2.46,0,0,1,.4-1.33,2,2,0,0,1,1.7-1,4.09,4.09,0,0,1,.85.09l1.05.29,1,.24.69.16.26.07c.17,0,.31,0,.41.08a5.6,5.6,0,0,0,.84.08,2,2,0,0,0,.67-.11,1.52,1.52,0,0,0,.57-.26.49.49,0,0,0,.22-.41.45.45,0,0,0-.24-.4l-.19-.07-.46-.17-.3-.09-1.28-.32-.24-.05-1.58-.45a8.47,8.47,0,0,1-2.2-.91,4.53,4.53,0,0,1-1.51-1.63,4.59,4.59,0,0,1-.53-2.18A5.35,5.35,0,0,1,145,28.87a6.33,6.33,0,0,1,2-1.45,8.62,8.62,0,0,1,2.76-.77,10.24,10.24,0,0,1,1.25-.07,9.37,9.37,0,0,1,2.56.35,6.29,6.29,0,0,1,2,.92,2.46,2.46,0,0,1,.89,1.27,3.88,3.88,0,0,1,.11.84,2.21,2.21,0,0,1-.38,1.29,2.49,2.49,0,0,1-.8.76,2.27,2.27,0,0,1-1.08.24A5.35,5.35,0,0,1,152.8,32l-.19-.07-.69-.22-.29-.07-.67-.17-.34-.08-.23-.05h-.32a1.52,1.52,0,0,0-.91.2A.52.52,0,0,0,149,32a.33.33,0,0,0,.14.26,1.35,1.35,0,0,0,.39.16l.45.13.17,0,.48.11.79.19,1.58.46a11.53,11.53,0,0,1,2.08.79,4.92,4.92,0,0,1,1.14.79,4.67,4.67,0,0,1,.85,1,4.54,4.54,0,0,1,.51,1.18,4.88,4.88,0,0,1,.16,1.28,5.27,5.27,0,0,1-1.35,3.49,7.41,7.41,0,0,1-6.08,2.5l-1-.05A9.59,9.59,0,0,1,145,43.35Z" transform="translate(-1.89 -2.3)"/><path d="M159.4,49.49a2.66,2.66,0,0,1-.77-1.92v-14a2.51,2.51,0,0,1,.79-1.89,2.64,2.64,0,0,1,1.92-.77l2.08,1.2V32a4.86,4.86,0,0,1,3.16-1.08,6.06,6.06,0,0,1,1.81.28,5.93,5.93,0,0,1,1.67.87,5.67,5.67,0,0,1,1.61,1.78,7.25,7.25,0,0,1,.9,2.53,8.08,8.08,0,0,1,.13,1.32,6.58,6.58,0,0,1-.17,1.48,6.73,6.73,0,0,1-1.41,3,6,6,0,0,1-2.59,1.81,6.51,6.51,0,0,1-2.06.35,5.62,5.62,0,0,1-2.06-.37l-.27-.1-.24-.1v3.76a2.61,2.61,0,0,1-.79,1.92,2.55,2.55,0,0,1-3.71,0Zm4.41-11.68a2.25,2.25,0,0,0,.52,1.52,1.62,1.62,0,0,0,1.27.56,1.56,1.56,0,0,0,1.3-.65,3.09,3.09,0,0,0,.5-1.88,2,2,0,0,0-.49-1.11,1.69,1.69,0,0,0-1-.52,2.15,2.15,0,0,0-1.55.55A2,2,0,0,0,163.81,37.81Z" transform="translate(-1.89 -2.3)"/><path d="M176.52,44.38a2.55,2.55,0,0,1-1.87-.78,2.58,2.58,0,0,1-.78-1.9V27.8a2.57,2.57,0,0,1,.36-1.32,2.7,2.7,0,0,1,1-1,2.68,2.68,0,0,1,1.34-.38,2.68,2.68,0,0,1,2.68,2.68V31.7a9.42,9.42,0,0,1,.94-.41,8.27,8.27,0,0,1,2.35-.38,5.33,5.33,0,0,1,2,.34,4.19,4.19,0,0,1,1.49.93,4,4,0,0,1,1,1.44,4.85,4.85,0,0,1,.35,1.83v6.29a2.7,2.7,0,0,1-2.73,2.72,2.76,2.76,0,0,1-1.88-.84,2.63,2.63,0,0,1-.76-1.9v-5a1.38,1.38,0,0,0-.38-1,1.2,1.2,0,0,0-.91-.42,1.33,1.33,0,0,0-1,.38,1.28,1.28,0,0,0-.41,1v5.08a2.59,2.59,0,0,1-.37,1.35,2.54,2.54,0,0,1-1,1A2.71,2.71,0,0,1,176.52,44.38Z" transform="translate(-1.89 -2.3)"/><path d="M202.43,36.78a2.2,2.2,0,0,1-.51,1.65,2.36,2.36,0,0,1-1.67.48H194a5.56,5.56,0,0,0,.44.46,2.75,2.75,0,0,0,.64.38,4,4,0,0,0,.84.2,9.37,9.37,0,0,0,1.28.07,8.2,8.2,0,0,0,1.83-.34,6,6,0,0,1,1.21-.21,2.09,2.09,0,0,1,1.51.55,1.82,1.82,0,0,1,.57,1.36,1.86,1.86,0,0,1,0,.46,2.49,2.49,0,0,1-1.13,1.42,8,8,0,0,1-1.27.57,12.39,12.39,0,0,1-3.64.52,9.59,9.59,0,0,1-3.2-.51,7.32,7.32,0,0,1-2.5-1.44A6.12,6.12,0,0,1,189,40.2a6.93,6.93,0,0,1-.54-2.76A6.42,6.42,0,0,1,189,34.9a6.52,6.52,0,0,1,1.5-2.08,6.85,6.85,0,0,1,2.24-1.37,7.63,7.63,0,0,1,2.81-.51,7.4,7.4,0,0,1,3.57.93,6.82,6.82,0,0,1,1.69,1.38A7,7,0,0,1,202,35,5.08,5.08,0,0,1,202.43,36.78Zm-8.37-.48h2.85a.79.79,0,0,0,0-.23c-.12-.77-.66-1.16-1.63-1.16a1.57,1.57,0,0,0-1.15,1.18A.59.59,0,0,0,194.06,36.3Z" transform="translate(-1.89 -2.3)"/><path d="M206.19,44.33a2.62,2.62,0,0,1-1.88-.75,2.51,2.51,0,0,1-.78-1.86v-8.1a2.57,2.57,0,0,1,.78-1.89,2.54,2.54,0,0,1,1.88-.79l2.47,1.68V32.5l.14-.18.3-.3a2.93,2.93,0,0,1,2-1,2.22,2.22,0,0,1,.67.09,2.53,2.53,0,0,1,1.19.68,2.34,2.34,0,0,1,.61,1.16c0,.27.05.46.05.59a2,2,0,0,1-.59,1.46A4.6,4.6,0,0,1,211.2,36l-.22.08-.26.11a5.14,5.14,0,0,0-1,.48,1.81,1.81,0,0,0-.58.55,2,2,0,0,0-.27.74,7.55,7.55,0,0,0-.07,1.2v2.35a2.88,2.88,0,0,1-.35,1.4,2.74,2.74,0,0,1-1,1A2.61,2.61,0,0,1,206.19,44.33Z" transform="translate(-1.89 -2.3)"/><path d="M227,36.78a2.2,2.2,0,0,1-.5,1.65,2.36,2.36,0,0,1-1.67.48h-6.24c0,.05.18.2.43.46a3,3,0,0,0,.65.38,4,4,0,0,0,.84.2,9.37,9.37,0,0,0,1.28.07,8.2,8.2,0,0,0,1.83-.34,5.9,5.9,0,0,1,1.21-.21,2.11,2.11,0,0,1,1.51.55,1.82,1.82,0,0,1,.57,1.36,1.78,1.78,0,0,1-.05.46,2.27,2.27,0,0,1-.4.79,2.52,2.52,0,0,1-.73.63,7.8,7.8,0,0,1-1.26.57,12.39,12.39,0,0,1-3.64.52,9.59,9.59,0,0,1-3.2-.51,7.23,7.23,0,0,1-2.5-1.44,6.12,6.12,0,0,1-1.58-2.2,6.93,6.93,0,0,1-.54-2.76,6.42,6.42,0,0,1,.59-2.54,6.52,6.52,0,0,1,1.5-2.08,6.85,6.85,0,0,1,2.24-1.37,7.59,7.59,0,0,1,2.81-.51,7.4,7.4,0,0,1,3.57.93,6.82,6.82,0,0,1,1.69,1.38A7,7,0,0,1,226.58,35,4.68,4.68,0,0,1,227,36.78Zm-8.36-.48h2.85a1.4,1.4,0,0,0,0-.23c-.12-.77-.66-1.16-1.63-1.16a1.6,1.6,0,0,0-1.16,1.18A.8.8,0,0,0,218.67,36.3Z" transform="translate(-1.89 -2.3)"/><path class="cls-1" d="M95,2.3C68.81,2.3,45.6,9.23,31.24,19.9a4.3,4.3,0,0,1,3,4.1,3.92,3.92,0,0,1-.05.59c13.69-11.45,37.68-19,65-19,27.9,0,52.33,7.92,65.85,19.79C151.86,11.65,125.45,2.3,95,2.3Z" transform="translate(-1.89 -2.3)"/><circle class="cls-2" cx="28.04" cy="21.7" r="4.3"/><circle class="cls-3" cx="160.07" cy="21.7" r="4.3"/></svg>