<svg id="Layer_1" data-name="Layer 1" xmlns="http://www.w3.org/2000/svg" viewBox="0 0 76.47 17.36"><defs><style>.cls-1{fill:#299fc7;}.cls-2{fill:#c62935;}.cls-3{fill:#2b9c2f;}</style></defs><title>logo 16</title><path d="M1.43,13.45a3.26,3.26,0,0,1-.48-.9,2.62,2.62,0,0,1-.17-.93A2.55,2.55,0,0,1,1,10.69a3.11,3.11,0,0,1,.5-.88,3,3,0,0,1,2-1.07A3.66,3.66,0,0,1,4,8.69a3.1,3.1,0,0,1,.78.09A1.82,1.82,0,0,1,5.38,9a1,1,0,0,1,.34.35.8.8,0,0,1,.11.4.71.71,0,0,1-.16.48.87.87,0,0,1-.25.23.81.81,0,0,1-.33.06H4.82a3,3,0,0,1-.56-.17,1.63,1.63,0,0,0-.43-.05A1.22,1.22,0,0,0,3,10.6a1.37,1.37,0,0,0-.44.77,2,2,0,0,0,0,.26,2.46,2.46,0,0,0,0,.26,1.68,1.68,0,0,0,.22.56.86.86,0,0,0,.38.35,1.27,1.27,0,0,0,.54.11,3,3,0,0,0,.92-.18h.08a1.35,1.35,0,0,1,.29,0,.8.8,0,0,1,.61.25.78.78,0,0,1,.2.5.91.91,0,0,1-.17.5,1.56,1.56,0,0,1-.77.53,2.56,2.56,0,0,1-1,.16,4.22,4.22,0,0,1-.6,0,3,3,0,0,1-1.44-.65A2.94,2.94,0,0,1,1.43,13.45Z"/><path d="M8.49,14.65a2.39,2.39,0,0,1-1.19-.3,2.19,2.19,0,0,1-.86-.82,2.11,2.11,0,0,1-.31-1.13,2.17,2.17,0,0,1,.31-1.14,2.28,2.28,0,0,1,.85-.84,2.43,2.43,0,0,1,1.2-.3,2.49,2.49,0,0,1,.87.15,2.24,2.24,0,0,1,1.06.79,2.5,2.5,0,0,1,.25.41,2.35,2.35,0,0,1,.14.45,2.32,2.32,0,0,1,0,.46,2.11,2.11,0,0,1-.13.75,2,2,0,0,1-.39.69,2.31,2.31,0,0,1-.63.52A2.47,2.47,0,0,1,8.49,14.65Zm-.62-2.26a.83.83,0,0,0,.18.55.56.56,0,0,0,.44.21l.12,0a.61.61,0,0,0,.49-.57,1.31,1.31,0,0,0,0-.17A.67.67,0,0,0,9,12a.58.58,0,0,0-1,0A.71.71,0,0,0,7.87,12.39Z"/><path d="M11.5,14.37a.92.92,0,0,1-.26-.64V11a.87.87,0,0,1,.26-.64.85.85,0,0,1,.63-.25l.7.44v0l.11-.09A2.12,2.12,0,0,1,14,10.14a2,2,0,0,1,.38,0,1.83,1.83,0,0,1,.68.3,1.55,1.55,0,0,1,.46.53,1.44,1.44,0,0,1,.15.65v2.07a.87.87,0,0,1-.12.45.82.82,0,0,1-.32.32.84.84,0,0,1-.44.13.88.88,0,0,1-.64-.26.83.83,0,0,1-.27-.63V12.06a.44.44,0,0,0-.75-.33.45.45,0,0,0-.14.33v1.67a.87.87,0,0,1-.27.64.83.83,0,0,1-.62.25A.88.88,0,0,1,11.5,14.37Z"/><path d="M16.42,14.37a.91.91,0,0,1-.25-.64V11a.86.86,0,0,1,.88-.89l.7.44v0l.11-.09A2.12,2.12,0,0,1,19,10.14a1.87,1.87,0,0,1,1.07.34,1.52,1.52,0,0,1,.45.53,1.45,1.45,0,0,1,.16.65v2.07a.87.87,0,0,1-.12.45,1,1,0,0,1-.77.45.9.9,0,0,1-.64-.26.83.83,0,0,1-.27-.63V12.06a.39.39,0,0,0-.13-.31.37.37,0,0,0-.31-.15.4.4,0,0,0-.31.13.49.49,0,0,0-.14.33v1.67a.9.9,0,0,1-.26.64.84.84,0,0,1-.62.25A.89.89,0,0,1,16.42,14.37Z"/><path d="M25.68,12.1a.75.75,0,0,1-.16.55.85.85,0,0,1-.56.16H22.88L23,13a1,1,0,0,0,.22.13,1.33,1.33,0,0,0,.28.06,2.58,2.58,0,0,0,.42,0,3,3,0,0,0,.62-.12A2.57,2.57,0,0,1,25,13a.69.69,0,0,1,.5.19.58.58,0,0,1,.19.45.58.58,0,0,1,0,.15.87.87,0,0,1-.14.27.83.83,0,0,1-.24.21,2.93,2.93,0,0,1-.42.19,5.27,5.27,0,0,1-.69.14,4.33,4.33,0,0,1-.53,0,3.27,3.27,0,0,1-1.06-.17,2.27,2.27,0,0,1-.83-.48,2,2,0,0,1-.53-.73,2.32,2.32,0,0,1-.18-.92,2.08,2.08,0,0,1,.2-.85,2,2,0,0,1,.5-.69,2.06,2.06,0,0,1,.74-.46,2.62,2.62,0,0,1,.94-.17,2.48,2.48,0,0,1,1.19.31,2.26,2.26,0,0,1,.56.46,2.32,2.32,0,0,1,.38.58A1.36,1.36,0,0,1,25.68,12.1Zm-2.78-.16h1s0-.06,0-.08q-.06-.39-.54-.39a.55.55,0,0,0-.39.4A.2.2,0,0,0,22.9,11.94Z"/><path d="M26.43,13.7A2.24,2.24,0,0,1,26,12.37a2,2,0,0,1,.15-.73,2.73,2.73,0,0,1,.39-.66,2.56,2.56,0,0,1,.35-.33,2.07,2.07,0,0,1,.68-.34,2.68,2.68,0,0,1,.83-.12l.37,0c.89.09,1.34.45,1.34,1.09a.74.74,0,0,1-.26.46.81.81,0,0,1-.53.18l-.14,0h0l-.21,0-.1,0-.17,0-.21,0a.68.68,0,0,0-.5.18.58.58,0,0,0-.19.46.66.66,0,0,0,.09.3.64.64,0,0,0,.22.21.68.68,0,0,0,.35.09l.26,0h0l.28-.06a1.23,1.23,0,0,1,.31,0,.78.78,0,0,1,.61.23.89.89,0,0,1,.22.64.69.69,0,0,1-.22.45,1.19,1.19,0,0,1-.56.3,3.37,3.37,0,0,1-.91.1,3,3,0,0,1-1.15-.24A2.12,2.12,0,0,1,26.43,13.7Z"/><path d="M30.24,10.4a.85.85,0,0,1,.55-.2h.08V9.81a.92.92,0,0,1,.26-.64.88.88,0,0,1,1.26,0,1,1,0,0,1,.26.65v.37h.1a.76.76,0,0,1,.53.21.73.73,0,0,1,.22.54.52.52,0,0,1,0,.17.67.67,0,0,1-.07.18l-.11.15a.84.84,0,0,1-.55.24h-.11v2a.92.92,0,0,1-.26.65.88.88,0,0,1-1.25,0,.93.93,0,0,1-.27-.66v-2H30.8a.76.76,0,0,1-.58-.25.65.65,0,0,1-.21-.49A.74.74,0,0,1,30.24,10.4Z"/><path d="M33.76,9.69A.9.9,0,0,1,33.49,9a.93.93,0,0,1,.28-.68,1,1,0,0,1,.3-.21,1,1,0,0,1,.35-.07.88.88,0,0,1,.66.29.94.94,0,0,1,.27.67.93.93,0,0,1-1.59.67Zm.66,4.94a.85.85,0,0,1-.62-.26.82.82,0,0,1-.26-.63V11a.89.89,0,0,1,.12-.45.82.82,0,0,1,.32-.32.89.89,0,0,1,.45-.12,1,1,0,0,1,.77.45.86.86,0,0,1,.11.45v2.68a.89.89,0,0,1-.89.9Z"/><path d="M38.09,14.65a2.43,2.43,0,0,1-1.2-.3,2.26,2.26,0,0,1-1.17-1.95A2.27,2.27,0,0,1,36,11.26a2.39,2.39,0,0,1,.86-.84,2.43,2.43,0,0,1,1.2-.3,2.49,2.49,0,0,1,.87.15,2.35,2.35,0,0,1,.72.42,2.92,2.92,0,0,1,.34.37,1.91,1.91,0,0,1,.24.41,2.38,2.38,0,0,1,.15.45,2.32,2.32,0,0,1,0,.46,2.11,2.11,0,0,1-.13.75,2.36,2.36,0,0,1-.39.69,2.47,2.47,0,0,1-.63.52A2.5,2.5,0,0,1,38.09,14.65Zm-.63-2.26a.78.78,0,0,0,.19.55.55.55,0,0,0,.44.21l.12,0a.61.61,0,0,0,.49-.57,1.31,1.31,0,0,0,0-.17.67.67,0,0,0-.1-.39.58.58,0,0,0-1,0A.71.71,0,0,0,37.46,12.39Z"/><path d="M41.1,14.37a.92.92,0,0,1-.26-.64V11a.87.87,0,0,1,.26-.64.84.84,0,0,1,.62-.25l.71.44v0a.39.39,0,0,1,.11-.09,2.11,2.11,0,0,1,1.08-.33,2.13,2.13,0,0,1,.39,0,1.91,1.91,0,0,1,.68.3,1.42,1.42,0,0,1,.45.53,1.33,1.33,0,0,1,.16.65v2.07a.87.87,0,0,1-.12.45.89.89,0,0,1-.32.32.87.87,0,0,1-1.08-.13.83.83,0,0,1-.27-.63V12.06a.39.39,0,0,0-.13-.31.4.4,0,0,0-.31-.15.42.42,0,0,0-.32.13.48.48,0,0,0-.13.33v1.67a.87.87,0,0,1-.27.64.83.83,0,0,1-.62.25A.88.88,0,0,1,41.1,14.37Z"/><path d="M48.48,14.29a1.27,1.27,0,0,1-.41-.37.86.86,0,0,1-.11-.47.8.8,0,0,1,.13-.45.67.67,0,0,1,.57-.33,1.33,1.33,0,0,1,.28,0l.35.09.32.08.23.06.09,0,.13,0,.28,0a.8.8,0,0,0,.23,0,.67.67,0,0,0,.19-.09.16.16,0,0,0,.07-.14.16.16,0,0,0-.08-.13l-.06,0-.16-.05-.1,0L50,12.39h-.08l-.53-.15a2.59,2.59,0,0,1-.73-.31,1.36,1.36,0,0,1-.5-.54,1.49,1.49,0,0,1-.18-.73,1.67,1.67,0,0,1,.12-.62,1.69,1.69,0,0,1,.35-.57A2.13,2.13,0,0,1,49.13,9a2.83,2.83,0,0,1,.92-.26,2.75,2.75,0,0,1,.41,0,3.43,3.43,0,0,1,.86.11,2.22,2.22,0,0,1,.67.31.79.79,0,0,1,.3.42,1.7,1.7,0,0,1,0,.28.75.75,0,0,1-.13.43.83.83,0,0,1-.27.26.8.8,0,0,1-.36.08,1.91,1.91,0,0,1-.49-.08l-.07,0-.23-.08-.09,0-.23-.06-.11,0-.08,0h-.1a.56.56,0,0,0-.31.07.19.19,0,0,0-.07.14.1.1,0,0,0,.05.08l.13.06.15,0,.06,0,.16,0,.26.07.53.15a4.81,4.81,0,0,1,.69.26,1.74,1.74,0,0,1,.38.27,1.49,1.49,0,0,1,.28.34,1.27,1.27,0,0,1,.17.4,1.42,1.42,0,0,1,.06.42,1.77,1.77,0,0,1-.45,1.17,2.49,2.49,0,0,1-2,.83l-.34,0A3.18,3.18,0,0,1,48.48,14.29Z"/><path d="M53.28,16.33a.9.9,0,0,1-.26-.64V11a.86.86,0,0,1,.26-.63.9.9,0,0,1,.64-.26l.7.4v0a1.59,1.59,0,0,1,1.05-.36,2,2,0,0,1,.6.09,2.13,2.13,0,0,1,.56.29,2,2,0,0,1,.54.6,2.61,2.61,0,0,1,.3.84,2.64,2.64,0,0,1,0,.44,2,2,0,0,1-.06.49,2.28,2.28,0,0,1-.46,1,2.13,2.13,0,0,1-.87.6,2.09,2.09,0,0,1-.69.12,1.91,1.91,0,0,1-.68-.13l-.09,0-.08,0V15.7a.87.87,0,0,1-.27.64.81.81,0,0,1-.61.26A.83.83,0,0,1,53.28,16.33Zm1.47-3.89a.77.77,0,0,0,.17.51.56.56,0,0,0,.42.18.54.54,0,0,0,.44-.21,1,1,0,0,0,.16-.63.63.63,0,0,0-.16-.37.59.59,0,0,0-.32-.17.73.73,0,0,0-.52.18A.67.67,0,0,0,54.75,12.44Z"/><path d="M59,14.63a.89.89,0,0,1-.88-.89V9.1a.88.88,0,0,1,.12-.44,1,1,0,0,1,.32-.32A.89.89,0,0,1,59,8.22a.84.84,0,0,1,.45.12.92.92,0,0,1,.33.32,1,1,0,0,1,.11.45V10.4l.32-.13a2.54,2.54,0,0,1,.78-.13,1.93,1.93,0,0,1,.65.11,1.57,1.57,0,0,1,.5.31,1.49,1.49,0,0,1,.32.48,1.78,1.78,0,0,1,.11.61v2.1a.9.9,0,0,1-.91.91.94.94,0,0,1-.62-.28.86.86,0,0,1-.26-.64V12.06a.45.45,0,0,0-.13-.32.39.39,0,0,0-.3-.14.44.44,0,0,0-.32.13.43.43,0,0,0-.14.32v1.69a.89.89,0,0,1-.12.45.78.78,0,0,1-.33.32A.89.89,0,0,1,59,14.63Z"/><path d="M67.62,12.1a.75.75,0,0,1-.17.55.83.83,0,0,1-.56.16H64.81L65,13a.85.85,0,0,0,.22.13,1.22,1.22,0,0,0,.27.06,2.63,2.63,0,0,0,.43,0,3.07,3.07,0,0,0,.61-.12,2.78,2.78,0,0,1,.4-.07.73.73,0,0,1,.51.19.62.62,0,0,1,.19.45.49.49,0,0,1,0,.15.84.84,0,0,1-.13.27.83.83,0,0,1-.24.21,3.13,3.13,0,0,1-.43.19,5.12,5.12,0,0,1-.68.14,4.45,4.45,0,0,1-.53,0,3.33,3.33,0,0,1-1.07-.17,2.35,2.35,0,0,1-.83-.48,2.11,2.11,0,0,1-.53-.73,2.32,2.32,0,0,1-.18-.92,2.25,2.25,0,0,1,.2-.85,2,2,0,0,1,.5-.69,2.2,2.2,0,0,1,.75-.46,2.6,2.6,0,0,1,.93-.17,2.45,2.45,0,0,1,1.19.31,2.3,2.3,0,0,1,1,1A1.71,1.71,0,0,1,67.62,12.1Zm-2.79-.16h1a.19.19,0,0,0,0-.08c0-.26-.22-.39-.54-.39a.52.52,0,0,0-.38.4A.25.25,0,0,0,64.83,11.94Z"/><path d="M68.88,14.61a.85.85,0,0,1-.63-.25.8.8,0,0,1-.26-.62V11a.89.89,0,0,1,.89-.89l.82.56v0l0-.06.1-.1a1,1,0,0,1,.68-.34.69.69,0,0,1,.22,0,.83.83,0,0,1,.4.22.7.7,0,0,1,.2.39c0,.09,0,.15,0,.2a.66.66,0,0,1-.2.48,1.39,1.39,0,0,1-.62.35l-.07,0-.09,0a1.36,1.36,0,0,0-.32.16.47.47,0,0,0-.19.18.62.62,0,0,0-.09.25,2,2,0,0,0,0,.4v.78a1,1,0,0,1-.11.47.92.92,0,0,1-.32.33A.8.8,0,0,1,68.88,14.61Z"/><path d="M75.82,12.1a.71.71,0,0,1-.17.55.8.8,0,0,1-.55.16H73l.14.15a1,1,0,0,0,.22.13,1.33,1.33,0,0,0,.28.06,2.5,2.5,0,0,0,.42,0,2.94,2.94,0,0,0,.61-.12A2.64,2.64,0,0,1,75.1,13a.69.69,0,0,1,.5.19.58.58,0,0,1,.19.45.58.58,0,0,1,0,.15.87.87,0,0,1-.14.27.83.83,0,0,1-.24.21,2.93,2.93,0,0,1-.42.19,5.63,5.63,0,0,1-.69.14,4.33,4.33,0,0,1-.53,0,3.27,3.27,0,0,1-1.06-.17,2.31,2.31,0,0,1-.84-.48,2.08,2.08,0,0,1-.52-.73,2.32,2.32,0,0,1-.18-.92,2.07,2.07,0,0,1,.19-.85,2.21,2.21,0,0,1,1.25-1.15,2.62,2.62,0,0,1,.94-.17,2.48,2.48,0,0,1,1.19.31,2.26,2.26,0,0,1,.56.46,2.32,2.32,0,0,1,.38.58A1.71,1.71,0,0,1,75.82,12.1ZM73,11.94h1v-.08c0-.26-.22-.39-.55-.39a.55.55,0,0,0-.38.4A.25.25,0,0,0,73,11.94Z"/><path class="cls-1" d="M31.82.6C23.08.6,15.34,2.91,10.56,6.47a1.43,1.43,0,0,1,1,1.37,1.23,1.23,0,0,1,0,.19C16.1,4.22,24.1,1.69,33.2,1.69c9.3,0,17.44,2.64,21.95,6.59C50.76,3.72,42,.6,31.82.6Z"/><circle class="cls-2" cx="10.12" cy="7.84" r="1.43"/><circle class="cls-3" cx="54.13" cy="7.84" r="1.43"/></svg>