<svg id="Layer_1" data-name="Layer 1" xmlns="http://www.w3.org/2000/svg" viewBox="0 0 307.17 69.77"><defs><style>.cls-1{fill:#299fc7;}.cls-2{fill:#c62935;}.cls-3{fill:#2b9c2f;}</style></defs><title>logo 64</title><path d="M5.82,55a13.37,13.37,0,0,1-1.94-3.6,11.28,11.28,0,0,1-.68-3.75,10.36,10.36,0,0,1,.7-3.7,12.35,12.35,0,0,1,2-3.52,11.77,11.77,0,0,1,7.8-4.31,18.76,18.76,0,0,1,2.53-.19,11.48,11.48,0,0,1,3.12.39,7.34,7.34,0,0,1,2.27,1A4.65,4.65,0,0,1,23,38.69a3.19,3.19,0,0,1,.44,1.6,2.91,2.91,0,0,1-.64,1.92,3.1,3.1,0,0,1-1,.92,2.81,2.81,0,0,1-1.32.27,8,8,0,0,1-1.09-.06,14.3,14.3,0,0,1-2.24-.67,6.08,6.08,0,0,0-1.7-.19,4.84,4.84,0,0,0-3.16,1.07,5.27,5.27,0,0,0-1.75,3.08,5.34,5.34,0,0,0-.09,1A6.38,6.38,0,0,0,11.36,51a3.89,3.89,0,0,0,1.53,1.38,4.84,4.84,0,0,0,2.17.46,11.51,11.51,0,0,0,3.67-.73l.14-.05.18,0a5.58,5.58,0,0,1,1.19-.12,3.13,3.13,0,0,1,2.42,1,3.07,3.07,0,0,1,.79,2,3.54,3.54,0,0,1-.67,2A6.08,6.08,0,0,1,19.69,59a10.38,10.38,0,0,1-3.87.64,17,17,0,0,1-2.4-.18,11.55,11.55,0,0,1-5.77-2.59A12.93,12.93,0,0,1,5.82,55Z"/><path d="M34.06,59.73a9.69,9.69,0,0,1-4.78-1.2,9,9,0,0,1-3.41-3.27,8.66,8.66,0,0,1-1.26-4.51,8.84,8.84,0,0,1,1.24-4.57,9,9,0,0,1,3.41-3.34,9.56,9.56,0,0,1,4.8-1.24,9.86,9.86,0,0,1,3.48.6,9.56,9.56,0,0,1,2.89,1.71,9,9,0,0,1,1.36,1.47,8.69,8.69,0,0,1,1,1.65,8.2,8.2,0,0,1,.57,1.78,8.91,8.91,0,0,1,.19,1.84,9.28,9.28,0,0,1-.52,3,8.74,8.74,0,0,1-1.57,2.72,9.4,9.4,0,0,1-7.37,3.33Zm-2.49-9a3.2,3.2,0,0,0,.72,2.16,2.25,2.25,0,0,0,1.77.85,4,4,0,0,0,.49-.08,2.38,2.38,0,0,0,2-2.26,7,7,0,0,0,.06-.71,2.8,2.8,0,0,0-.42-1.56,2.33,2.33,0,0,0-4.15,0A3,3,0,0,0,31.57,50.72Z"/><path d="M46.11,58.61a3.56,3.56,0,0,1-1-2.56V45.32a3.47,3.47,0,0,1,3.52-3.58l2.81,1.75v-.12a3.34,3.34,0,0,1,.46-.33A8.31,8.31,0,0,1,56.2,41.7a9,9,0,0,1,1.53.17,7.06,7.06,0,0,1,2.75,1.2,6,6,0,0,1,1.81,2.11,5.75,5.75,0,0,1,.62,2.6v8.27a3.56,3.56,0,0,1-.47,1.81,3.73,3.73,0,0,1-1.29,1.3,3.58,3.58,0,0,1-4.34-.53,3.41,3.41,0,0,1-1.06-2.55V49.37a1.63,1.63,0,0,0-.53-1.24A1.57,1.57,0,0,0,54,47.55a1.69,1.69,0,0,0-1.25.51,1.93,1.93,0,0,0-.54,1.31v6.68a3.52,3.52,0,0,1-1.06,2.56,3.37,3.37,0,0,1-2.48,1A3.52,3.52,0,0,1,46.11,58.61Z"/><path d="M65.8,58.61a3.56,3.56,0,0,1-1-2.56V45.32a3.47,3.47,0,0,1,3.52-3.58l2.81,1.75v-.12a3.34,3.34,0,0,1,.46-.33,8.31,8.31,0,0,1,4.33-1.34,9,9,0,0,1,1.53.17,7.06,7.06,0,0,1,2.75,1.2A6,6,0,0,1,82,45.18a5.75,5.75,0,0,1,.62,2.6v8.27a3.56,3.56,0,0,1-.47,1.81,3.73,3.73,0,0,1-1.29,1.3,3.58,3.58,0,0,1-4.34-.53,3.41,3.41,0,0,1-1.06-2.55V49.37a1.63,1.63,0,0,0-.53-1.24,1.57,1.57,0,0,0-1.25-.58,1.69,1.69,0,0,0-1.25.51,1.93,1.93,0,0,0-.54,1.31v6.68a3.52,3.52,0,0,1-1.06,2.56,3.37,3.37,0,0,1-2.48,1A3.52,3.52,0,0,1,65.8,58.61Z"/><path d="M102.84,49.53a3,3,0,0,1-.67,2.2,3.16,3.16,0,0,1-2.23.64H91.62a6.43,6.43,0,0,0,.58.61,3.79,3.79,0,0,0,.86.51,6,6,0,0,0,1.12.26,8.75,8.75,0,0,0,4.15-.35,7.62,7.62,0,0,1,1.61-.28,2.78,2.78,0,0,1,2,.73,2.67,2.67,0,0,1,.69,2.42,2.88,2.88,0,0,1-.54,1.06,3.68,3.68,0,0,1-1,.84,9.73,9.73,0,0,1-1.69.75,15.9,15.9,0,0,1-2.74.58,17.52,17.52,0,0,1-2.11.12A13,13,0,0,1,90.33,59,10,10,0,0,1,87,57a8.2,8.2,0,0,1-2.1-2.93,9.31,9.31,0,0,1-.72-3.69A8.85,8.85,0,0,1,87,44.25a9.15,9.15,0,0,1,3-1.83,10.19,10.19,0,0,1,3.74-.68A9.93,9.93,0,0,1,98.45,43a9,9,0,0,1,2.26,1.85,9.14,9.14,0,0,1,1.53,2.32A6.38,6.38,0,0,1,102.84,49.53Zm-11.16-.64h3.81a1.35,1.35,0,0,0,0-.31c-.16-1-.88-1.55-2.17-1.55a2.14,2.14,0,0,0-1.55,1.58A1,1,0,0,0,91.68,48.89Z"/><path d="M105.82,55.93a8.9,8.9,0,0,1-1.8-5.31,8.14,8.14,0,0,1,.6-2.91,9.48,9.48,0,0,1,1.57-2.66,9.9,9.9,0,0,1,1.38-1.29,8.84,8.84,0,0,1,2.73-1.4,11,11,0,0,1,3.3-.46,14.32,14.32,0,0,1,1.52.06c3.55.37,5.33,1.82,5.33,4.37a2.91,2.91,0,0,1-1,1.86,3.22,3.22,0,0,1-2.12.7,3,3,0,0,1-.55-.06l-.16,0-.82-.19-.43-.09-.67-.14a3.57,3.57,0,0,0-.85-.07,2.79,2.79,0,0,0-2,.7,2.4,2.4,0,0,0-.75,1.86,2.6,2.6,0,0,0,.34,1.18,2.56,2.56,0,0,0,.89.83,2.86,2.86,0,0,0,1.42.36,7.05,7.05,0,0,0,1-.09h.09l1.12-.27a7.76,7.76,0,0,1,1.22-.15,3.26,3.26,0,0,1,2.46.93,3.58,3.58,0,0,1,.89,2.58,3.11,3.11,0,0,1-.88,1.79,5.08,5.08,0,0,1-2.24,1.17,13.51,13.51,0,0,1-3.65.42,11.35,11.35,0,0,1-4.61-1A8.49,8.49,0,0,1,105.82,55.93Z"/><path d="M121.08,42.76a3.16,3.16,0,0,1,2.18-.83h.31V40.39a3.65,3.65,0,0,1,1.06-2.58,3.42,3.42,0,0,1,2.48-1,3.48,3.48,0,0,1,2.53,1.06,3.77,3.77,0,0,1,1.06,2.63v1.46h.41a3,3,0,0,1,2.11.86,2.93,2.93,0,0,1,.9,2.14,2.86,2.86,0,0,1-.09.7,3,3,0,0,1-.29.69,3.51,3.51,0,0,1-.45.62,3.16,3.16,0,0,1-2.18,1h-.44V56a3.52,3.52,0,0,1-1.06,2.59,3.3,3.3,0,0,1-2.5,1,3.43,3.43,0,0,1-2.51-1A3.69,3.69,0,0,1,123.54,56V47.85h-.25a3.19,3.19,0,0,1-2.31-1,2.7,2.7,0,0,1-.82-2A2.8,2.8,0,0,1,121.08,42.76Z"/><path d="M135.13,39.92A3.72,3.72,0,0,1,134,37.2a3.79,3.79,0,0,1,1.13-2.71,4,4,0,0,1,1.21-.81,3.58,3.58,0,0,1,1.41-.28,3.54,3.54,0,0,1,2.65,1.15,3.75,3.75,0,0,1,1.08,2.69,3.75,3.75,0,0,1-6.39,2.68Zm2.66,19.74a3.43,3.43,0,0,1-2.51-1,3.46,3.46,0,0,1-1-2.54V45.32a3.46,3.46,0,0,1,.48-1.8,3.52,3.52,0,0,1,1.3-1.3,3.46,3.46,0,0,1,1.8-.48,3.67,3.67,0,0,1,1.78.5,3.62,3.62,0,0,1,1.28,1.3,3.47,3.47,0,0,1,.48,1.81v10.7a3.48,3.48,0,0,1-1.05,2.56A3.42,3.42,0,0,1,137.79,59.66Z"/><path d="M152.45,59.73a9.69,9.69,0,0,1-4.78-1.2,9,9,0,0,1-3.41-3.27A8.66,8.66,0,0,1,143,50.75a8.84,8.84,0,0,1,1.24-4.57,9,9,0,0,1,3.41-3.34,9.54,9.54,0,0,1,4.8-1.24,9.86,9.86,0,0,1,3.48.6,9.56,9.56,0,0,1,2.89,1.71,9,9,0,0,1,1.36,1.47,8.69,8.69,0,0,1,1,1.65,8.2,8.2,0,0,1,.57,1.78,8.91,8.91,0,0,1,.19,1.84,9,9,0,0,1-.53,3,8.52,8.52,0,0,1-1.56,2.72,9.4,9.4,0,0,1-7.37,3.33Zm-2.49-9a3.2,3.2,0,0,0,.72,2.16,2.25,2.25,0,0,0,1.77.85l.49-.08a2.38,2.38,0,0,0,1.95-2.26,7,7,0,0,0,.06-.71,2.8,2.8,0,0,0-.42-1.56,2.33,2.33,0,0,0-4.15,0A3,3,0,0,0,150,50.72Z"/><path d="M164.5,58.61a3.56,3.56,0,0,1-1-2.56V45.32A3.47,3.47,0,0,1,167,41.74l2.81,1.75v-.12a3.07,3.07,0,0,1,.45-.33,8.37,8.37,0,0,1,4.34-1.34,9,9,0,0,1,1.53.17,7.06,7.06,0,0,1,2.75,1.2,6,6,0,0,1,1.81,2.11,5.75,5.75,0,0,1,.62,2.6v8.27a3.56,3.56,0,0,1-.47,1.81,3.73,3.73,0,0,1-1.29,1.3,3.58,3.58,0,0,1-4.34-.53,3.41,3.41,0,0,1-1.06-2.55V49.37a1.63,1.63,0,0,0-.53-1.24,1.57,1.57,0,0,0-1.25-.58,1.69,1.69,0,0,0-1.25.51,1.93,1.93,0,0,0-.54,1.31v6.68a3.52,3.52,0,0,1-1.06,2.56,3.37,3.37,0,0,1-2.48,1A3.5,3.5,0,0,1,164.5,58.61Z"/><path d="M194,58.28a5,5,0,0,1-1.66-1.48,3.52,3.52,0,0,1-.44-1.87,3.37,3.37,0,0,1,.53-1.78,2.67,2.67,0,0,1,2.27-1.34,5.43,5.43,0,0,1,1.13.12l1.4.38,1.28.33.92.21.35.1.54.09a7.13,7.13,0,0,0,1.12.11,2.68,2.68,0,0,0,.89-.14,2.36,2.36,0,0,0,.77-.34.68.68,0,0,0,.29-.55.62.62,0,0,0-.32-.55l-.25-.09-.61-.22-.41-.12-1.7-.42-.32-.07-2.11-.6a11,11,0,0,1-2.93-1.22,5.8,5.8,0,0,1-2-2.17,6.07,6.07,0,0,1-.71-2.9,6.9,6.9,0,0,1,.48-2.51A6.75,6.75,0,0,1,193.94,39a8.46,8.46,0,0,1,2.67-1.93,11.79,11.79,0,0,1,3.68-1,15.13,15.13,0,0,1,1.67-.1,12.55,12.55,0,0,1,3.42.47,8.84,8.84,0,0,1,2.69,1.23,3.2,3.2,0,0,1,1.17,1.69,4.43,4.43,0,0,1,.16,1.12,2.89,2.89,0,0,1-.51,1.72,3.08,3.08,0,0,1-1.07,1,2.93,2.93,0,0,1-1.43.33,7.32,7.32,0,0,1-2-.31l-.25-.09-.92-.3-.39-.09-.89-.22-.45-.11-.32-.06-.18,0h-.24a2,2,0,0,0-1.21.27.71.71,0,0,0-.29.55.43.43,0,0,0,.19.34,1.72,1.72,0,0,0,.52.22l.61.17.21.06.64.16,1.06.25,2.11.61A15.47,15.47,0,0,1,207.39,46a6.62,6.62,0,0,1,1.52,1A6.16,6.16,0,0,1,210,48.39a5.9,5.9,0,0,1,.68,1.58,6.29,6.29,0,0,1,.22,1.7,7.08,7.08,0,0,1-1.79,4.66c-1.84,2.22-4.54,3.33-8.12,3.33-.27,0-.73,0-1.37-.07A12.62,12.62,0,0,1,194,58.28Z"/><path d="M213.21,66.47a3.54,3.54,0,0,1-1-2.55V45.29a3.37,3.37,0,0,1,1-2.52,3.56,3.56,0,0,1,2.57-1l2.77,1.6v-.16a6.46,6.46,0,0,1,4.22-1.44,7.71,7.71,0,0,1,4.63,1.53,7.75,7.75,0,0,1,2.15,2.38A9.93,9.93,0,0,1,230.78,49a11.82,11.82,0,0,1,.17,1.76,8.25,8.25,0,0,1-.24,2,8.93,8.93,0,0,1-1.87,4,8,8,0,0,1-3.46,2.42,8.55,8.55,0,0,1-2.75.47,7.57,7.57,0,0,1-2.74-.5l-.36-.13-.32-.14v5a3.5,3.5,0,0,1-1.06,2.56,3.36,3.36,0,0,1-2.45,1A3.31,3.31,0,0,1,213.21,66.47Zm5.88-15.57a3,3,0,0,0,.69,2,2.19,2.19,0,0,0,1.7.76,2.1,2.1,0,0,0,1.73-.87,4.07,4.07,0,0,0,.67-2.52,2.77,2.77,0,0,0-.66-1.47,2.16,2.16,0,0,0-1.29-.69,2.86,2.86,0,0,0-2.07.74A2.69,2.69,0,0,0,219.09,50.9Z"/><path d="M236,59.66a3.53,3.53,0,0,1-3.52-3.58V37.55A3.45,3.45,0,0,1,233,35.8a3.62,3.62,0,0,1,1.29-1.29,3.78,3.78,0,0,1,1.79-.5,3.47,3.47,0,0,1,1.81.48,3.57,3.57,0,0,1,1.29,1.3,3.48,3.48,0,0,1,.48,1.79v5.18a9.76,9.76,0,0,1,1.25-.55A10.8,10.8,0,0,1,244,41.7a7.24,7.24,0,0,1,2.6.45,5.9,5.9,0,0,1,2,1.24,5.64,5.64,0,0,1,1.27,1.93,6.37,6.37,0,0,1,.46,2.43v8.4a3.49,3.49,0,0,1-1.05,2.56,3.53,3.53,0,0,1-2.58,1.06,3.69,3.69,0,0,1-2.51-1.13,3.48,3.48,0,0,1-1-2.53V49.37a1.84,1.84,0,0,0-.5-1.25,1.62,1.62,0,0,0-1.22-.57,1.82,1.82,0,0,0-1.28.51,1.71,1.71,0,0,0-.54,1.28v6.77a3.54,3.54,0,0,1-1.81,3.09A3.71,3.71,0,0,1,236,59.66Z"/><path d="M270.58,49.53a3,3,0,0,1-.67,2.2,3.19,3.19,0,0,1-2.24.64h-8.31a6.43,6.43,0,0,0,.58.61,3.79,3.79,0,0,0,.86.51,6,6,0,0,0,1.12.26,8.75,8.75,0,0,0,4.15-.35,7.66,7.66,0,0,1,1.6-.28,2.79,2.79,0,0,1,2,.73,2.67,2.67,0,0,1,.69,2.42,3,3,0,0,1-.54,1.06,3.68,3.68,0,0,1-1,.84,9.73,9.73,0,0,1-1.69.75,15.9,15.9,0,0,1-2.74.58,17.52,17.52,0,0,1-2.11.12,13,13,0,0,1-4.27-.67A10,10,0,0,1,254.74,57a8.23,8.23,0,0,1-2.11-2.93,9.48,9.48,0,0,1-.71-3.69,8.74,8.74,0,0,1,2.78-6.15,9,9,0,0,1,3-1.83,10.19,10.19,0,0,1,3.74-.68A9.93,9.93,0,0,1,266.19,43a9,9,0,0,1,2.26,1.85A9.14,9.14,0,0,1,270,47.15,6.38,6.38,0,0,1,270.58,49.53Zm-11.16-.64h3.81a1.35,1.35,0,0,0,0-.31c-.16-1-.88-1.55-2.17-1.55a2.14,2.14,0,0,0-1.55,1.58A1,1,0,0,0,259.42,48.89Z"/><path d="M275.6,59.59a3.49,3.49,0,0,1-2.51-1,3.3,3.3,0,0,1-1-2.48V45.32a3.59,3.59,0,0,1,3.56-3.58L278.89,44v-.16l.19-.23.39-.41a3.92,3.92,0,0,1,2.71-1.37,2.9,2.9,0,0,1,.89.12,3.25,3.25,0,0,1,1.59.91,3.05,3.05,0,0,1,.82,1.54q.06.54.06.78a2.75,2.75,0,0,1-.78,2,6.15,6.15,0,0,1-2.48,1.4l-.3.11a3.12,3.12,0,0,0-.34.14,6.55,6.55,0,0,0-1.3.64,2.36,2.36,0,0,0-.77.73,2.76,2.76,0,0,0-.36,1,9.58,9.58,0,0,0-.1,1.6v3.13a3.74,3.74,0,0,1-.47,1.87,3.54,3.54,0,0,1-1.28,1.35A3.4,3.4,0,0,1,275.6,59.59Z"/><path d="M303.39,49.53a3,3,0,0,1-.67,2.2,3.16,3.16,0,0,1-2.23.64h-8.32a6.43,6.43,0,0,0,.58.61,3.79,3.79,0,0,0,.86.51,6,6,0,0,0,1.12.26,8.75,8.75,0,0,0,4.15-.35,7.62,7.62,0,0,1,1.61-.28,2.78,2.78,0,0,1,2,.73,2.67,2.67,0,0,1,.69,2.42,2.88,2.88,0,0,1-.54,1.06,3.62,3.62,0,0,1-1,.84,10.25,10.25,0,0,1-1.7.75,15.9,15.9,0,0,1-2.74.58,17.52,17.52,0,0,1-2.11.12,13,13,0,0,1-4.27-.67A10,10,0,0,1,287.55,57a8.2,8.2,0,0,1-2.1-2.93,9.31,9.31,0,0,1-.72-3.69,8.4,8.4,0,0,1,.79-3.37,8.61,8.61,0,0,1,2-2.78,9.15,9.15,0,0,1,3-1.83,10.24,10.24,0,0,1,3.75-.68A9.92,9.92,0,0,1,299,43a9,9,0,0,1,2.26,1.85,9.14,9.14,0,0,1,1.53,2.32A6.38,6.38,0,0,1,303.39,49.53Zm-11.16-.64H296a1.35,1.35,0,0,0,0-.31c-.16-1-.88-1.55-2.17-1.55a2.13,2.13,0,0,0-1.54,1.58A.8.8,0,0,0,292.23,48.89Z"/><path class="cls-1" d="M127.37,3.55c-34.94,0-65.9,9.24-85,23.47a5.73,5.73,0,0,1,4,5.46,6.83,6.83,0,0,1-.06.79C64.52,18,96.5,7.89,132.91,7.89c37.19,0,69.76,10.56,87.8,26.38C203.15,16,168,3.55,127.37,3.55Z"/><circle class="cls-2" cx="40.59" cy="32.48" r="5.74"/><circle class="cls-3" cx="216.63" cy="32.48" r="5.74"/></svg>