<svg id="Layer_1" data-name="Layer 1" xmlns="http://www.w3.org/2000/svg" viewBox="0 0 1207.77 278.87"><defs><style>.cls-1{fill:#299fc7;}.cls-2{fill:#c62935;}.cls-3{fill:#2b9c2f;}</style></defs><title>logo 256</title><path d="M14,217.07a53.89,53.89,0,0,1-7.77-14.41,44.79,44.79,0,0,1-2.72-15,42.26,42.26,0,0,1,2.78-14.82,50.78,50.78,0,0,1,8.08-14.08q11.8-14.47,31.21-17.22a72.17,72.17,0,0,1,10.11-.75,46.55,46.55,0,0,1,12.48,1.53,29.5,29.5,0,0,1,9.08,4A18.23,18.23,0,0,1,82.62,152a12.66,12.66,0,0,1,1.78,6.43,11.74,11.74,0,0,1-2.56,7.67,12.79,12.79,0,0,1-4,3.69,11.45,11.45,0,0,1-5.27,1.06,31.88,31.88,0,0,1-4.37-.25,53.69,53.69,0,0,1-8.92-2.69,25.49,25.49,0,0,0-6.81-.74,19.4,19.4,0,0,0-12.63,4.27q-5.28,4.28-7,12.33a20.59,20.59,0,0,0-.37,4.05A25.57,25.57,0,0,0,36.15,201a15.18,15.18,0,0,0,6.12,5.53,19.54,19.54,0,0,0,8.67,1.84,46,46,0,0,0,14.67-2.94,4.09,4.09,0,0,1,.56-.18,6.88,6.88,0,0,1,.75-.19,21.47,21.47,0,0,1,4.74-.5,12.4,12.4,0,0,1,9.68,3.93,12.23,12.23,0,0,1,3.18,8,14.15,14.15,0,0,1-2.68,7.93q-3.37,5.17-12.36,8.55A41.94,41.94,0,0,1,54,235.61a65.65,65.65,0,0,1-9.61-.75A45.92,45.92,0,0,1,21.3,224.5,51.54,51.54,0,0,1,14,217.07Z"/><path d="M127,236.17a38.63,38.63,0,0,1-19.13-4.81,36.15,36.15,0,0,1-13.64-13.07,34.82,34.82,0,0,1-5-18.07,35.43,35.43,0,0,1,5-18.25,36.31,36.31,0,0,1,13.64-13.39A38.17,38.17,0,0,1,127,163.65a39.52,39.52,0,0,1,13.92,2.4,37.48,37.48,0,0,1,11.54,6.84,35.53,35.53,0,0,1,9.33,12.48,34.26,34.26,0,0,1,2.28,7.11,36.87,36.87,0,0,1,.75,7.37,36.2,36.2,0,0,1-2.09,12.1,34.79,34.79,0,0,1-6.27,10.89,37.42,37.42,0,0,1-10,8.34A38.75,38.75,0,0,1,127,236.17ZM117,200.1a12.79,12.79,0,0,0,2.91,8.67,9,9,0,0,0,7.08,3.37,14,14,0,0,0,1.93-.31q6.75-1.38,7.81-9.05a27.47,27.47,0,0,0,.24-2.81,11.14,11.14,0,0,0-1.68-6.24q-3.06-5.11-8.3-5.12t-8.3,5.12A12,12,0,0,0,117,200.1Z"/><path d="M175.14,231.68A14.32,14.32,0,0,1,171,221.44V178.5a13.88,13.88,0,0,1,14.1-14.29l11.24,7v-.5a12.5,12.5,0,0,1,1.81-1.31Q207,164,215.52,164a34.3,34.3,0,0,1,6.11.69,28,28,0,0,1,11,4.81,23.82,23.82,0,0,1,7.24,8.42,22.82,22.82,0,0,1,2.49,10.42v33.08a14,14,0,0,1-1.9,7.24,14.52,14.52,0,0,1-5.15,5.18A14.31,14.31,0,0,1,218,231.74a13.62,13.62,0,0,1-4.24-10.17V194.73a6.57,6.57,0,0,0-2.12-5,6.35,6.35,0,0,0-5-2.31,6.65,6.65,0,0,0-5,2.06,7.55,7.55,0,0,0-2.18,5.24v26.71a14,14,0,0,1-4.25,10.24,13.5,13.5,0,0,1-9.92,4A14.14,14.14,0,0,1,175.14,231.68Z"/><path d="M253.9,231.68a14.32,14.32,0,0,1-4.12-10.24V178.5a13.88,13.88,0,0,1,14.1-14.29l11.24,7v-.5a12.5,12.5,0,0,1,1.81-1.31q8.79-5.37,17.35-5.37a34.3,34.3,0,0,1,6.11.69,28,28,0,0,1,11,4.81,23.82,23.82,0,0,1,7.24,8.42,22.82,22.82,0,0,1,2.49,10.42v33.08a14,14,0,0,1-1.9,7.24,14.52,14.52,0,0,1-5.15,5.18,14.31,14.31,0,0,1-17.35-2.12,13.62,13.62,0,0,1-4.24-10.17V194.73a6.57,6.57,0,0,0-2.12-5,6.35,6.35,0,0,0-5-2.31,6.65,6.65,0,0,0-5,2.06,7.55,7.55,0,0,0-2.18,5.24v26.71a14,14,0,0,1-4.25,10.24,13.5,13.5,0,0,1-9.92,4A14.14,14.14,0,0,1,253.9,231.68Z"/><path d="M402.06,195.35c0,4.16-.9,7.1-2.69,8.8s-4.76,2.56-8.92,2.56H357.18c.17.25.94,1.06,2.31,2.44a15,15,0,0,0,3.47,2,20.7,20.7,0,0,0,4.46,1.07,48.66,48.66,0,0,0,6.8.4,47.13,47.13,0,0,0,9.8-1.81,31.43,31.43,0,0,1,6.43-1.12,11.14,11.14,0,0,1,8.08,2.93,9.69,9.69,0,0,1,3,7.24,9.51,9.51,0,0,1-.25,2.43,12.54,12.54,0,0,1-2.15,4.25,14.38,14.38,0,0,1-3.87,3.34,38.64,38.64,0,0,1-6.78,3,63.58,63.58,0,0,1-11,2.31,65.64,65.64,0,0,1-8.42.5A51.44,51.44,0,0,1,352,233a38.79,38.79,0,0,1-13.33-7.71,33,33,0,0,1-8.42-11.73,37.14,37.14,0,0,1-2.87-14.73,34.08,34.08,0,0,1,3.15-13.51,34.51,34.51,0,0,1,8-11.11,36.83,36.83,0,0,1,11.95-7.33,41.1,41.1,0,0,1,15-2.69,39.43,39.43,0,0,1,19,4.93,37.83,37.83,0,0,1,15.13,16.7A25.62,25.62,0,0,1,402.06,195.35Zm-44.63-2.56h15.23a5.42,5.42,0,0,0-.12-1.24q-.94-6.18-8.68-6.18-4.55,1.13-6.18,6.3A4.27,4.27,0,0,0,357.43,192.79Z"/><path d="M414,220.94a35.51,35.51,0,0,1-7.18-21.22,32.74,32.74,0,0,1,2.37-11.64,37.63,37.63,0,0,1,6.31-10.64,40.42,40.42,0,0,1,5.49-5.18,35.74,35.74,0,0,1,10.92-5.58,44.39,44.39,0,0,1,13.23-1.84,53.44,53.44,0,0,1,6.05.25q21.34,2.17,21.35,17.47a11.72,11.72,0,0,1-4.18,7.43,13,13,0,0,1-8.49,2.8,11.84,11.84,0,0,1-2.19-.24l-.62-.13-3.31-.75-1.68-.37-2.69-.56a16.92,16.92,0,0,0-3.43-.25,11.29,11.29,0,0,0-8,2.77,9.7,9.7,0,0,0-3,7.46,10,10,0,0,0,1.37,4.71,10.38,10.38,0,0,0,3.56,3.34,11.37,11.37,0,0,0,5.68,1.44,26.61,26.61,0,0,0,4.05-.38H450l4.49-1.06a29,29,0,0,1,4.87-.62q6.24,0,9.83,3.74t3.59,10.3a12.31,12.31,0,0,1-3.56,7.15q-3,3-8.92,4.71a54.44,54.44,0,0,1-14.61,1.68,45.23,45.23,0,0,1-18.44-3.9A33.56,33.56,0,0,1,414,220.94Z"/><path d="M475,168.27a12.63,12.63,0,0,1,8.74-3.31H485v-6.18a14.44,14.44,0,0,1,4.24-10.3,13.56,13.56,0,0,1,9.93-4.11,13.8,13.8,0,0,1,10.11,4.24,15.06,15.06,0,0,1,4.24,10.48V165h1.62a12,12,0,0,1,12.05,12,11.37,11.37,0,0,1-1.53,5.59,15.76,15.76,0,0,1-1.78,2.46,12.61,12.61,0,0,1-8.74,3.87h-1.75v32.46a14.1,14.1,0,0,1-4.24,10.36,13.25,13.25,0,0,1-10,4.18,13.71,13.71,0,0,1-10.05-4.18,14.67,14.67,0,0,1-4.25-10.49V188.61h-1a12.61,12.61,0,0,1-9.24-3.87,10.77,10.77,0,0,1-3.31-7.92A11.35,11.35,0,0,1,475,168.27Z"/><path d="M531.24,156.91a14.74,14.74,0,0,1-4.36-10.86,15.18,15.18,0,0,1,4.49-10.86,15.42,15.42,0,0,1,4.87-3.24,14.38,14.38,0,0,1,5.61-1.13,14.18,14.18,0,0,1,10.61,4.62,15,15,0,0,1,4.31,10.74,14.57,14.57,0,0,1-4.31,10.73,15.21,15.21,0,0,1-21.22,0Zm10.61,79a13.65,13.65,0,0,1-10-4.15,13.79,13.79,0,0,1-4.15-10.14V178.5a14.15,14.15,0,0,1,21.4-12.29,14.44,14.44,0,0,1,5.15,5.18,14,14,0,0,1,1.9,7.24v42.81A13.92,13.92,0,0,1,552,231.68,13.78,13.78,0,0,1,541.85,235.86Z"/><path d="M600.52,236.17a38.63,38.63,0,0,1-19.13-4.81,36.15,36.15,0,0,1-13.64-13.07,34.73,34.73,0,0,1-5-18.07,35.43,35.43,0,0,1,5-18.25,36.31,36.31,0,0,1,13.64-13.39,38.17,38.17,0,0,1,19.22-4.93,39.43,39.43,0,0,1,13.91,2.4A37.41,37.41,0,0,1,626,172.89a35.53,35.53,0,0,1,9.33,12.48,34.26,34.26,0,0,1,2.28,7.11,36.87,36.87,0,0,1,.75,7.37,36.2,36.2,0,0,1-2.09,12.1A34.63,34.63,0,0,1,630,222.84a37.22,37.22,0,0,1-10,8.34A38.75,38.75,0,0,1,600.52,236.17Zm-10-36.07a12.83,12.83,0,0,0,2.9,8.67,9,9,0,0,0,7.09,3.37,14,14,0,0,0,1.93-.31q6.75-1.38,7.8-9.05a25.52,25.52,0,0,0,.25-2.81,11.14,11.14,0,0,0-1.68-6.24q-3.06-5.11-8.3-5.12t-8.3,5.12A11.86,11.86,0,0,0,590.53,200.1Z"/><path d="M648.7,231.68a14.32,14.32,0,0,1-4.12-10.24V178.5a13.88,13.88,0,0,1,14.1-14.29l11.24,7v-.5a12.5,12.5,0,0,1,1.81-1.31q8.79-5.37,17.35-5.37a34.3,34.3,0,0,1,6.11.69,28,28,0,0,1,11,4.81,23.69,23.69,0,0,1,7.23,8.42,22.7,22.7,0,0,1,2.5,10.42v33.08a14,14,0,0,1-1.9,7.24,14.52,14.52,0,0,1-5.15,5.18,14.32,14.32,0,0,1-17.35-2.12,13.62,13.62,0,0,1-4.24-10.17V194.73a6.55,6.55,0,0,0-2.13-5,6.32,6.32,0,0,0-5-2.31,6.63,6.63,0,0,0-5,2.06,7.56,7.56,0,0,0-2.19,5.24v26.71a14,14,0,0,1-4.24,10.24,13.51,13.51,0,0,1-9.92,4A14.14,14.14,0,0,1,648.7,231.68Z"/><path d="M766.84,230.37q-4.87-3-6.65-5.93a14.25,14.25,0,0,1-1.78-7.49,13.86,13.86,0,0,1,2.12-7.12q3.63-5.37,9.11-5.36a20.88,20.88,0,0,1,4.5.49l5.61,1.5,5.12,1.31,3.68.88,1.38.37c.91.13,1.64.25,2.18.38a27.28,27.28,0,0,0,4.5.43,10.54,10.54,0,0,0,3.55-.56,9.26,9.26,0,0,0,3.06-1.37,2.75,2.75,0,0,0,1.19-2.19,2.48,2.48,0,0,0-1.31-2.18,9.07,9.07,0,0,0-1-.37l-2.44-.88-1.62-.5-6.8-1.68-1.31-.25-8.43-2.44a43.86,43.86,0,0,1-11.73-4.86,23.41,23.41,0,0,1-8-8.68,24.24,24.24,0,0,1-2.84-11.61,28.26,28.26,0,0,1,7.55-19.09,34.19,34.19,0,0,1,10.67-7.74,46.67,46.67,0,0,1,14.73-4.12,58.24,58.24,0,0,1,6.68-.38,49.48,49.48,0,0,1,13.67,1.88Q819.44,145,823,147.7a13,13,0,0,1,4.71,6.78,18.51,18.51,0,0,1,.63,4.49,11.47,11.47,0,0,1-2.06,6.86,12.34,12.34,0,0,1-4.28,4.06,11.78,11.78,0,0,1-5.71,1.31,29.23,29.23,0,0,1-7.92-1.25l-1-.37-3.68-1.19L802.1,168l-3.56-.87-1.81-.44-1.25-.25-.72-.1q-.35,0-1,0c-2.37,0-4,.36-4.87,1.06a2.79,2.79,0,0,0-1.12,2.19,1.67,1.67,0,0,0,.74,1.37,6.39,6.39,0,0,0,2.06.88l2.44.68.87.25,2.56.63,4.24,1,8.43,2.44a63.77,63.77,0,0,1,11.11,4.24,26.83,26.83,0,0,1,6.08,4.21,25.6,25.6,0,0,1,4.5,5.53,24.79,24.79,0,0,1,2.71,6.3,26.13,26.13,0,0,1,.88,6.8,28.26,28.26,0,0,1-7.18,18.66q-11,13.31-32.45,13.3c-1.09,0-2.92-.09-5.5-.25Q774.14,234.73,766.84,230.37Z"/><path d="M843.54,263.13a14.28,14.28,0,0,1-4.12-10.23V178.38a13.47,13.47,0,0,1,4.21-10.08,14.22,14.22,0,0,1,10.27-4.09L865,170.58V170a25.87,25.87,0,0,1,16.85-5.74,30.57,30.57,0,0,1,18.53,6.12,30.32,30.32,0,0,1,8.58,9.48,39.27,39.27,0,0,1,4.84,13.48,45.47,45.47,0,0,1,.69,7.06,33.78,33.78,0,0,1-.94,7.92,36.14,36.14,0,0,1-7.49,16.17,31.69,31.69,0,0,1-13.85,9.67,33.89,33.89,0,0,1-11,1.87,30.05,30.05,0,0,1-11-2l-1.44-.5-1.25-.56V253a13.94,13.94,0,0,1-4.24,10.23,13.63,13.63,0,0,1-19.78-.12Zm23.52-62.28a11.92,11.92,0,0,0,2.78,8.08,8.71,8.71,0,0,0,6.77,3,8.35,8.35,0,0,0,6.93-3.49q2.69-3.5,2.68-10.05a10.92,10.92,0,0,0-2.65-5.9,8.71,8.71,0,0,0-5.15-2.77,11.47,11.47,0,0,0-8.27,3A10.76,10.76,0,0,0,867.06,200.85Z"/><path d="M934.84,235.86a13.58,13.58,0,0,1-10-4.15,13.79,13.79,0,0,1-4.15-10.14V147.42a13.6,13.6,0,0,1,1.9-7,14.1,14.1,0,0,1,5.15-5.14,14.81,14.81,0,0,1,7.18-2,13.89,13.89,0,0,1,7.24,1.93,14.42,14.42,0,0,1,5.14,5.21,14,14,0,0,1,1.91,7.15v20.72a40.81,40.81,0,0,1,5-2.19A43.2,43.2,0,0,1,966.79,164a29,29,0,0,1,10.4,1.81,23.22,23.22,0,0,1,7.95,5,22.13,22.13,0,0,1,5.09,7.7,25.73,25.73,0,0,1,1.84,9.74v33.57a14.38,14.38,0,0,1-14.54,14.48,14.58,14.58,0,0,1-10-4.49,14,14,0,0,1-4.09-10.11v-27a7.28,7.28,0,0,0-2-5,6.51,6.51,0,0,0-4.87-2.28,7.2,7.2,0,0,0-5.12,2.06,6.76,6.76,0,0,0-2.18,5.11v27.09a13.83,13.83,0,0,1-2,7.18A14,14,0,0,1,942,234,14.62,14.62,0,0,1,934.84,235.86Z"/><path d="M1073,195.35c0,4.16-.89,7.1-2.68,8.8s-4.76,2.56-8.92,2.56h-33.27c.17.25.94,1.06,2.31,2.44a14.76,14.76,0,0,0,3.47,2,20.55,20.55,0,0,0,4.46,1.07,48.66,48.66,0,0,0,6.8.4,47.24,47.24,0,0,0,9.8-1.81,31.43,31.43,0,0,1,6.43-1.12,11.14,11.14,0,0,1,8.08,2.93,10.62,10.62,0,0,1,2.78,9.67,12.38,12.38,0,0,1-2.16,4.25,14.38,14.38,0,0,1-3.87,3.34,38.49,38.49,0,0,1-6.77,3,63.78,63.78,0,0,1-11,2.31,65.69,65.69,0,0,1-8.43.5A51.44,51.44,0,0,1,1023,233a38.75,38.75,0,0,1-13.32-7.71,33.17,33.17,0,0,1-8.43-11.73,37.32,37.32,0,0,1-2.87-14.73,35.16,35.16,0,0,1,11.14-24.62,37,37,0,0,1,12-7.33,41.13,41.13,0,0,1,15-2.69,39.44,39.44,0,0,1,19,4.93,37.83,37.83,0,0,1,15.13,16.7A25.41,25.41,0,0,1,1073,195.35Zm-44.62-2.56h15.23a5.42,5.42,0,0,0-.12-1.24q-.95-6.18-8.68-6.18-4.56,1.13-6.18,6.3A3.89,3.89,0,0,0,1028.39,192.79Z"/><path d="M1093.11,235.61a14,14,0,0,1-10-4,13.18,13.18,0,0,1-4.18-9.89V178.5a14.27,14.27,0,0,1,14.23-14.29l13.17,8.93v-.63l.75-.93,1.56-1.63q5.06-5.3,10.86-5.49a11.3,11.3,0,0,1,3.55.5,13,13,0,0,1,6.34,3.62,12.2,12.2,0,0,1,3.28,6.18c.16,1.41.25,2.45.25,3.12a11,11,0,0,1-3.13,7.83q-3.12,3.28-9.92,5.59l-1.18.43q-.51.2-1.38.57a29.8,29.8,0,0,0-5.21,2.55,10.06,10.06,0,0,0-3.06,2.94,10.84,10.84,0,0,0-1.43,4,39.34,39.34,0,0,0-.41,6.4v12.54a15.19,15.19,0,0,1-1.87,7.46,14.29,14.29,0,0,1-5.12,5.4A13.62,13.62,0,0,1,1093.11,235.61Z"/><path d="M1204.26,195.35c0,4.16-.89,7.1-2.68,8.8s-4.77,2.56-8.93,2.56h-33.26a29.79,29.79,0,0,0,2.31,2.44,14.71,14.71,0,0,0,3.46,2,20.7,20.7,0,0,0,4.46,1.07,48.82,48.82,0,0,0,6.81.4,47.05,47.05,0,0,0,9.79-1.81,31.43,31.43,0,0,1,6.43-1.12,11.12,11.12,0,0,1,8.08,2.93,9.69,9.69,0,0,1,3,7.24,9.08,9.08,0,0,1-.25,2.43,12.36,12.36,0,0,1-2.15,4.25,14.38,14.38,0,0,1-3.87,3.34,38.49,38.49,0,0,1-6.77,3,63.7,63.7,0,0,1-11,2.31,65.64,65.64,0,0,1-8.42.5,51.44,51.44,0,0,1-17.07-2.71,38.75,38.75,0,0,1-13.32-7.71,32.92,32.92,0,0,1-8.43-11.73,37.32,37.32,0,0,1-2.87-14.73,34.08,34.08,0,0,1,3.15-13.51,34.66,34.66,0,0,1,8-11.11,36.93,36.93,0,0,1,12-7.33,41.1,41.1,0,0,1,15-2.69,39.4,39.4,0,0,1,19,4.93,37.93,37.93,0,0,1,15.14,16.7A25.6,25.6,0,0,1,1204.26,195.35Zm-44.62-2.56h15.23a5.36,5.36,0,0,0-.13-1.24c-.62-4.12-3.52-6.18-8.67-6.18q-4.56,1.13-6.18,6.3A3.89,3.89,0,0,0,1159.64,192.79Z"/><path class="cls-1" d="M500.19,11.44c-139.77,0-263.6,37-340.14,93.86a23,23,0,0,1,16,21.87,23.47,23.47,0,0,1-.24,3.15c73-61,200.93-101.52,346.55-101.52C671.1,28.8,801.4,71,873.54,134.3,803.32,61.29,662.5,11.44,500.19,11.44Z"/><circle class="cls-2" cx="153.07" cy="127.17" r="22.95"/><circle class="cls-3" cx="857.21" cy="127.17" r="22.95"/></svg>