<svg id="Layer_1" data-name="Layer 1" xmlns="http://www.w3.org/2000/svg" viewBox="0 0 150.09 32"><defs><style>.cls-1{fill:#299fc7;}.cls-2{fill:#c62935;}.cls-3{fill:#2b9c2f;}</style></defs><title>logo 32</title><path d="M3,27.28a6.59,6.59,0,0,1-1-1.8,5.78,5.78,0,0,1-.33-1.88A5.3,5.3,0,0,1,2,21.75,6.36,6.36,0,0,1,3,20a6,6,0,0,1,3.9-2.15,9.6,9.6,0,0,1,1.27-.09,5.75,5.75,0,0,1,1.56.19,3.57,3.57,0,0,1,1.13.5,2.32,2.32,0,0,1,.67.7,1.58,1.58,0,0,1,.23.81,1.45,1.45,0,0,1-.32.95,1.68,1.68,0,0,1-.51.47,1.55,1.55,0,0,1-.66.13,4,4,0,0,1-.54,0,6.75,6.75,0,0,1-1.12-.34A3.3,3.3,0,0,0,7.77,21a2.47,2.47,0,0,0-1.58.53,2.65,2.65,0,0,0-.88,1.54,2.78,2.78,0,0,0,0,.51,3.23,3.23,0,0,0,0,.53,3.16,3.16,0,0,0,.43,1.12A1.8,1.8,0,0,0,6.5,26a2.32,2.32,0,0,0,1.08.23,5.87,5.87,0,0,0,1.84-.36l.07,0,.09,0a2.74,2.74,0,0,1,.59-.06,1.53,1.53,0,0,1,1.21.49,1.51,1.51,0,0,1,.4,1,1.82,1.82,0,0,1-.33,1A3.17,3.17,0,0,1,9.9,29.28,5.27,5.27,0,0,1,8,29.6a8.83,8.83,0,0,1-1.21-.1,5.71,5.71,0,0,1-2.88-1.29A6.71,6.71,0,0,1,3,27.28Z" transform="translate(-1.66 -1.57)"/><path d="M17.09,29.67a4.76,4.76,0,0,1-2.4-.61A4.51,4.51,0,0,1,13,27.43a4.26,4.26,0,0,1-.63-2.26A4.49,4.49,0,0,1,13,22.89a4.54,4.54,0,0,1,1.7-1.67,4.83,4.83,0,0,1,2.41-.62,5,5,0,0,1,1.74.3,4.79,4.79,0,0,1,1.44.86,3.91,3.91,0,0,1,.68.73,3.65,3.65,0,0,1,.48.83,4,4,0,0,1,.29.88,4.88,4.88,0,0,1,.09.93,4.4,4.4,0,0,1-.26,1.51A4.22,4.22,0,0,1,20.77,28a4.79,4.79,0,0,1-3.68,1.67Zm-1.25-4.51a1.6,1.6,0,0,0,.36,1.08,1.13,1.13,0,0,0,.89.42l.24,0a1.18,1.18,0,0,0,1-1.13,3.23,3.23,0,0,0,0-.35,1.38,1.38,0,0,0-.21-.78,1.15,1.15,0,0,0-1-.64,1.16,1.16,0,0,0-1,.64A1.49,1.49,0,0,0,15.84,25.16Z" transform="translate(-1.66 -1.57)"/><path d="M23.11,29.1a1.74,1.74,0,0,1-.52-1.28V22.46a1.73,1.73,0,0,1,1.77-1.79l1.4.87v-.06a1.92,1.92,0,0,1,.23-.16,4.1,4.1,0,0,1,2.17-.67,5,5,0,0,1,.76.08,3.47,3.47,0,0,1,1.37.6,3.05,3.05,0,0,1,.91,1.06,2.8,2.8,0,0,1,.31,1.3v4.13a1.74,1.74,0,0,1-.24.91,1.81,1.81,0,0,1-.64.65,1.83,1.83,0,0,1-.89.25,1.78,1.78,0,0,1-1.28-.52,1.71,1.71,0,0,1-.53-1.27V24.49a.83.83,0,0,0-.27-.63.78.78,0,0,0-.62-.29.82.82,0,0,0-.62.26.93.93,0,0,0-.28.66v3.33a1.71,1.71,0,0,1-.53,1.28,1.68,1.68,0,0,1-1.24.51A1.74,1.74,0,0,1,23.11,29.1Z" transform="translate(-1.66 -1.57)"/><path d="M33,29.1a1.77,1.77,0,0,1-.51-1.28V22.46a1.73,1.73,0,0,1,1.76-1.79l1.41.87v-.06l.22-.16A4.15,4.15,0,0,1,38,20.65a5.15,5.15,0,0,1,.77.08,3.61,3.61,0,0,1,1.37.6,3.13,3.13,0,0,1,.9,1.06,2.8,2.8,0,0,1,.31,1.3v4.13a1.74,1.74,0,0,1-.23.91,1.84,1.84,0,0,1-.65.65,1.78,1.78,0,0,1-2.17-.27,1.71,1.71,0,0,1-.53-1.27V24.49a.94.94,0,0,0-.89-.92.85.85,0,0,0-.62.26,1,1,0,0,0-.27.66v3.33a1.75,1.75,0,0,1-.53,1.28,1.68,1.68,0,0,1-1.24.51A1.78,1.78,0,0,1,33,29.1Z" transform="translate(-1.66 -1.57)"/><path d="M51.47,24.56a1.49,1.49,0,0,1-.33,1.1A1.58,1.58,0,0,1,50,26H45.86a3.76,3.76,0,0,0,.29.31,1.81,1.81,0,0,0,.44.25,2,2,0,0,0,.55.13,5.32,5.32,0,0,0,.85,0,5.84,5.84,0,0,0,1.23-.22,3.56,3.56,0,0,1,.8-.14,1.4,1.4,0,0,1,1,.36,1.24,1.24,0,0,1,.38.91,1.15,1.15,0,0,1,0,.3,1.56,1.56,0,0,1-.27.53,1.65,1.65,0,0,1-.48.42,5.08,5.08,0,0,1-.85.38,8,8,0,0,1-1.37.29,8.78,8.78,0,0,1-1.06.06,6.34,6.34,0,0,1-2.13-.34,4.91,4.91,0,0,1-1.67-1,4.23,4.23,0,0,1-1-1.47A4.61,4.61,0,0,1,42.14,25a4.32,4.32,0,0,1,.4-1.69,4.23,4.23,0,0,1,1-1.39A4.55,4.55,0,0,1,45,21a5,5,0,0,1,1.87-.34,4.93,4.93,0,0,1,2.38.62,4.64,4.64,0,0,1,1.89,2.08A3,3,0,0,1,51.47,24.56Zm-5.57-.32h1.9a.61.61,0,0,0,0-.15c-.07-.52-.44-.77-1.08-.77a1,1,0,0,0-.77.78A.58.58,0,0,0,45.9,24.24Z" transform="translate(-1.66 -1.57)"/><path d="M53,27.76a4.4,4.4,0,0,1-.89-2.65,4.08,4.08,0,0,1,.29-1.46,4.83,4.83,0,0,1,.79-1.33A4.55,4.55,0,0,1,55.2,21a5.74,5.74,0,0,1,1.66-.23,6.94,6.94,0,0,1,.75,0c1.78.18,2.67.91,2.67,2.18a1.45,1.45,0,0,1-.52.93,1.59,1.59,0,0,1-1.06.35l-.28,0h-.07l-.42-.1-.21,0L57.39,24A2.31,2.31,0,0,0,57,24a1.41,1.41,0,0,0-1,.34,1.21,1.21,0,0,0-.38.93,1.28,1.28,0,0,0,.18.59,1.19,1.19,0,0,0,.44.42,1.41,1.41,0,0,0,.71.18,3.62,3.62,0,0,0,.51-.05h0l.57-.13a3.65,3.65,0,0,1,.6-.08,1.63,1.63,0,0,1,1.23.47,1.78,1.78,0,0,1,.45,1.29,1.54,1.54,0,0,1-.44.89,2.51,2.51,0,0,1-1.12.59,6.74,6.74,0,0,1-1.82.21,5.6,5.6,0,0,1-2.31-.49A4.22,4.22,0,0,1,53,27.76Z" transform="translate(-1.66 -1.57)"/><path d="M60.59,21.18a1.57,1.57,0,0,1,1.09-.42h.16V20a1.78,1.78,0,0,1,.53-1.28,1.67,1.67,0,0,1,1.24-.52,1.76,1.76,0,0,1,1.27.53A1.91,1.91,0,0,1,65.41,20v.73h.2a1.5,1.5,0,0,1,1.5,1.5,1.39,1.39,0,0,1,0,.35,1.19,1.19,0,0,1-.15.35,1.73,1.73,0,0,1-.22.31,1.54,1.54,0,0,1-1.09.48h-.22v4.06a1.76,1.76,0,0,1-.53,1.29,1.65,1.65,0,0,1-1.25.53,1.69,1.69,0,0,1-1.25-.53,1.8,1.8,0,0,1-.53-1.31V23.72H61.7a1.56,1.56,0,0,1-1.15-.48,1.35,1.35,0,0,1-.42-1A1.44,1.44,0,0,1,60.59,21.18Z" transform="translate(-1.66 -1.57)"/><path d="M67.62,19.76a1.87,1.87,0,0,1-.54-1.36,1.87,1.87,0,0,1,1.17-1.76,1.65,1.65,0,0,1,.7-.14,1.78,1.78,0,0,1,1.32.57,1.9,1.9,0,0,1,.54,1.35,1.82,1.82,0,0,1-.54,1.34,1.9,1.9,0,0,1-2.65,0ZM69,29.63a1.78,1.78,0,0,1-1.77-1.79V22.46a1.83,1.83,0,0,1,.23-.9,1.76,1.76,0,0,1,.65-.65,1.78,1.78,0,0,1,.9-.24,1.8,1.8,0,0,1,.89.25,1.75,1.75,0,0,1,.88,1.55v5.35A1.79,1.79,0,0,1,69,29.63Z" transform="translate(-1.66 -1.57)"/><path d="M76.28,29.67a4.75,4.75,0,0,1-2.39-.61,4.54,4.54,0,0,1-1.71-1.63,4.45,4.45,0,0,1-.63-2.26,4.49,4.49,0,0,1,.62-2.28,4.57,4.57,0,0,1,1.71-1.67,4.77,4.77,0,0,1,2.4-.62,5,5,0,0,1,1.74.3,4.56,4.56,0,0,1,1.44.86,4.33,4.33,0,0,1,.69.73,4.59,4.59,0,0,1,.48.83,3.92,3.92,0,0,1,.28.88,4.2,4.2,0,0,1,.1.93,4.66,4.66,0,0,1-.26,1.51A4.44,4.44,0,0,1,80,28a4.69,4.69,0,0,1-1.25,1A4.84,4.84,0,0,1,76.28,29.67ZM75,25.16a1.56,1.56,0,0,0,.37,1.08,1.11,1.11,0,0,0,.88.42l.24,0a1.19,1.19,0,0,0,1-1.13,3.23,3.23,0,0,0,0-.35,1.38,1.38,0,0,0-.21-.78,1.17,1.17,0,0,0-2.08,0A1.49,1.49,0,0,0,75,25.16Z" transform="translate(-1.66 -1.57)"/><path d="M82.3,29.1a1.77,1.77,0,0,1-.51-1.28V22.46a1.73,1.73,0,0,1,1.76-1.79l1.41.87v-.06a1.58,1.58,0,0,1,.22-.16,4.12,4.12,0,0,1,2.17-.67,4.91,4.91,0,0,1,.76.08,3.58,3.58,0,0,1,1.38.6,3.13,3.13,0,0,1,.9,1.06,2.8,2.8,0,0,1,.31,1.3v4.13a1.74,1.74,0,0,1-.23.91,1.84,1.84,0,0,1-.65.65,1.78,1.78,0,0,1-2.17-.27,1.71,1.71,0,0,1-.53-1.27V24.49a.94.94,0,0,0-.89-.92.85.85,0,0,0-.62.26,1,1,0,0,0-.27.66v3.33a1.75,1.75,0,0,1-.53,1.28,1.68,1.68,0,0,1-1.24.51A1.78,1.78,0,0,1,82.3,29.1Z" transform="translate(-1.66 -1.57)"/><path d="M97.07,28.94a2.48,2.48,0,0,1-.83-.74,1.79,1.79,0,0,1-.22-.94,1.7,1.7,0,0,1,.26-.89,1.35,1.35,0,0,1,1.14-.67,2.1,2.1,0,0,1,.56.07l.71.18.63.17.47.11.17,0,.27.05a3,3,0,0,0,.56.05,1.25,1.25,0,0,0,.45-.07,1,1,0,0,0,.38-.17.34.34,0,0,0,.15-.27.29.29,0,0,0-.17-.27l-.12-.05-.31-.11-.2-.06-.85-.21-.16,0-1.06-.31a5.3,5.3,0,0,1-1.46-.61,3,3,0,0,1-1-1.08,3.11,3.11,0,0,1-.35-1.45,3.52,3.52,0,0,1,.24-1.26,3.61,3.61,0,0,1,.7-1.13,4.41,4.41,0,0,1,1.34-1,5.72,5.72,0,0,1,1.84-.51,7.55,7.55,0,0,1,.83,0,6,6,0,0,1,1.71.24,4.18,4.18,0,0,1,1.35.61,1.65,1.65,0,0,1,.59.84,2.46,2.46,0,0,1,.07.57,1.42,1.42,0,0,1-.25.85,1.62,1.62,0,0,1-.54.51,1.46,1.46,0,0,1-.71.16,3.84,3.84,0,0,1-1-.15l-.13-.05-.46-.15-.19,0L101,21l-.22-.06-.16,0h-.21a1,1,0,0,0-.61.13.36.36,0,0,0-.14.27.19.19,0,0,0,.1.17.58.58,0,0,0,.25.11l.31.09.11,0,.32.08.53.12,1,.31a7.51,7.51,0,0,1,1.39.53,3.4,3.4,0,0,1,.76.52,3.32,3.32,0,0,1,.56.69,3.2,3.2,0,0,1,.34.79,3.41,3.41,0,0,1,.11.85,3.55,3.55,0,0,1-.9,2.34,5,5,0,0,1-4.05,1.66l-.69,0A6.53,6.53,0,0,1,97.07,28.94Z" transform="translate(-1.66 -1.57)"/><path d="M106.66,33a1.77,1.77,0,0,1-.52-1.28V22.44a1.69,1.69,0,0,1,.53-1.26,1.77,1.77,0,0,1,1.28-.51l1.39.8v-.08a3.23,3.23,0,0,1,2.11-.72,4,4,0,0,1,3.39,1.95,5.07,5.07,0,0,1,.6,1.69,5.34,5.34,0,0,1,.09.88,4.07,4.07,0,0,1-.12,1,4.44,4.44,0,0,1-.94,2,3.92,3.92,0,0,1-1.73,1.21,4.33,4.33,0,0,1-1.37.23,3.7,3.7,0,0,1-1.37-.25l-.18-.06-.16-.07v2.51a1.75,1.75,0,0,1-.53,1.28,1.72,1.72,0,0,1-2.47,0Zm2.94-7.79a1.44,1.44,0,0,0,.35,1,1.07,1.07,0,0,0,.84.38,1.06,1.06,0,0,0,.87-.44A2,2,0,0,0,112,25a1.27,1.27,0,0,0-.33-.74,1.08,1.08,0,0,0-.64-.35,1.44,1.44,0,0,0-1,.37A1.35,1.35,0,0,0,109.6,25.25Z" transform="translate(-1.66 -1.57)"/><path d="M118.07,29.63a1.78,1.78,0,0,1-1.76-1.79V18.57a1.68,1.68,0,0,1,.24-.87,1.64,1.64,0,0,1,.64-.64,1.85,1.85,0,0,1,.9-.26,1.73,1.73,0,0,1,.9.24,1.84,1.84,0,0,1,.65.65,1.88,1.88,0,0,1,.23.9v2.59a6.24,6.24,0,0,1,.63-.28,5.39,5.39,0,0,1,1.57-.25,3.57,3.57,0,0,1,1.29.22,2.88,2.88,0,0,1,1,.62,2.81,2.81,0,0,1,.63,1,3.07,3.07,0,0,1,.23,1.21v4.2a1.79,1.79,0,0,1-1.81,1.81,1.82,1.82,0,0,1-1.26-.56,1.74,1.74,0,0,1-.51-1.26V24.49a.88.88,0,0,0-.25-.63.8.8,0,0,0-.6-.29.9.9,0,0,0-.64.26.83.83,0,0,0-.28.64v3.39a1.72,1.72,0,0,1-.24.89,1.78,1.78,0,0,1-1.56.88Z" transform="translate(-1.66 -1.57)"/><path d="M135.34,24.56a1.49,1.49,0,0,1-.33,1.1,1.58,1.58,0,0,1-1.12.32h-4.16a3.76,3.76,0,0,0,.29.31,1.81,1.81,0,0,0,.44.25,2,2,0,0,0,.55.13,5.32,5.32,0,0,0,.85,0,5.84,5.84,0,0,0,1.23-.22,3.56,3.56,0,0,1,.8-.14,1.4,1.4,0,0,1,1,.36,1.24,1.24,0,0,1,.38.91,1.15,1.15,0,0,1,0,.3,1.56,1.56,0,0,1-.27.53,1.65,1.65,0,0,1-.48.42,5.08,5.08,0,0,1-.85.38,8.15,8.15,0,0,1-1.37.29,8.78,8.78,0,0,1-1.06.06,6.34,6.34,0,0,1-2.13-.34,4.91,4.91,0,0,1-1.67-1,4.23,4.23,0,0,1-1-1.47A4.61,4.61,0,0,1,126,25a4.32,4.32,0,0,1,.4-1.69,4.23,4.23,0,0,1,1-1.39A4.55,4.55,0,0,1,128.9,21a5,5,0,0,1,1.87-.34,4.93,4.93,0,0,1,2.38.62A4.64,4.64,0,0,1,135,23.37,3,3,0,0,1,135.34,24.56Zm-5.58-.32h1.91a.61.61,0,0,0,0-.15c-.08-.52-.44-.77-1.08-.77a1,1,0,0,0-.77.78A.82.82,0,0,0,129.76,24.24Z" transform="translate(-1.66 -1.57)"/><path d="M137.85,29.6a1.74,1.74,0,0,1-1.25-.51,1.63,1.63,0,0,1-.52-1.23v-5.4a1.72,1.72,0,0,1,.52-1.27,1.75,1.75,0,0,1,1.25-.52l1.65,1.12v-.08l.09-.12.2-.2a2,2,0,0,1,1.36-.69,1.42,1.42,0,0,1,.44.06,1.58,1.58,0,0,1,.79.46,1.42,1.42,0,0,1,.41.77q0,.27,0,.39a1.37,1.37,0,0,1-.39,1,3.16,3.16,0,0,1-1.24.7l-.14.05-.18.07a4.38,4.38,0,0,0-.65.32,1.22,1.22,0,0,0-.38.37,1.19,1.19,0,0,0-.18.49,5.45,5.45,0,0,0,0,.8v1.57a1.94,1.94,0,0,1-.23.93,1.82,1.82,0,0,1-.64.68A1.84,1.84,0,0,1,137.85,29.6Z" transform="translate(-1.66 -1.57)"/><path d="M151.75,24.56a1.45,1.45,0,0,1-.34,1.1,1.54,1.54,0,0,1-1.11.32h-4.16a3.76,3.76,0,0,0,.29.31,1.76,1.76,0,0,0,.43.25,2.11,2.11,0,0,0,.56.13,5.25,5.25,0,0,0,.85,0,5.77,5.77,0,0,0,1.22-.22,3.53,3.53,0,0,1,.81-.14,1.4,1.4,0,0,1,1,.36,1.24,1.24,0,0,1,.38.91.8.8,0,0,1,0,.3,1.38,1.38,0,0,1-.26.53,1.84,1.84,0,0,1-.49.42,4.92,4.92,0,0,1-.84.38,8.06,8.06,0,0,1-1.38.29,8.74,8.74,0,0,1-1.05.06,6.26,6.26,0,0,1-2.13-.34,4.81,4.81,0,0,1-1.67-1,4.23,4.23,0,0,1-1.05-1.47,4.61,4.61,0,0,1-.36-1.84,4.3,4.3,0,0,1,.39-1.69,4.37,4.37,0,0,1,1-1.39A4.77,4.77,0,0,1,145.3,21a5.06,5.06,0,0,1,1.88-.34,4.93,4.93,0,0,1,2.38.62,4.74,4.74,0,0,1,1.12.92,4.87,4.87,0,0,1,.77,1.16A3.42,3.42,0,0,1,151.75,24.56Zm-5.58-.32h1.9a.66.66,0,0,0,0-.15c-.08-.52-.44-.77-1.09-.77a1.05,1.05,0,0,0-.77.78A.58.58,0,0,0,146.17,24.24Z" transform="translate(-1.66 -1.57)"/><path class="cls-1" d="M63.74,1.57c-17.47,0-32.95,4.63-42.52,11.74a2.87,2.87,0,0,1,2,2.73,2.47,2.47,0,0,1,0,.39C32.31,8.8,48.3,3.74,66.51,3.74c18.59,0,34.88,5.28,43.9,13.19C101.63,7.81,84,1.57,63.74,1.57Z" transform="translate(-1.66 -1.57)"/><circle class="cls-2" cx="18.69" cy="14.47" r="2.87"/><circle class="cls-3" cx="106.71" cy="14.47" r="2.87"/></svg>