<svg id="Layer_1" data-name="Layer 1" xmlns="http://www.w3.org/2000/svg" viewBox="0 0 619.56 137.25"><defs><style>.cls-1{fill:#299fc7;}.cls-2{fill:#c62935;}.cls-3{fill:#2b9c2f;}</style></defs><title>logo 128</title><path d="M14.84,107.44A26.84,26.84,0,0,1,11,100.23a22.44,22.44,0,0,1-1.36-7.48A21.3,21.3,0,0,1,11,85.33a25.66,25.66,0,0,1,4-7,23.63,23.63,0,0,1,15.61-8.61,36,36,0,0,1,5.05-.38,23.7,23.7,0,0,1,6.24.76,14.93,14.93,0,0,1,4.54,2,9.2,9.2,0,0,1,2.69,2.8A6.32,6.32,0,0,1,50,78.11,5.87,5.87,0,0,1,48.76,82a6.38,6.38,0,0,1-2,1.84,5.69,5.69,0,0,1-2.63.53,14.42,14.42,0,0,1-2.19-.13,25.8,25.8,0,0,1-4.46-1.34,12.7,12.7,0,0,0-3.4-.37,9.69,9.69,0,0,0-6.32,2.14,10.44,10.44,0,0,0-3.51,6.16,9.93,9.93,0,0,0-.19,2,12.1,12.1,0,0,0,.19,2.12,12.37,12.37,0,0,0,1.68,4.49A7.51,7.51,0,0,0,29,102.18a9.66,9.66,0,0,0,4.34.93,23,23,0,0,0,7.33-1.47l.28-.1.38-.09a10.45,10.45,0,0,1,2.37-.25,6.21,6.21,0,0,1,4.84,2,6.11,6.11,0,0,1,1.59,4,7.16,7.16,0,0,1-1.34,4c-1.13,1.72-3.19,3.15-6.18,4.27a21,21,0,0,1-7.74,1.28,34.3,34.3,0,0,1-4.81-.37,23,23,0,0,1-11.54-5.18A25.31,25.31,0,0,1,14.84,107.44Z"/><path d="M71.32,117a19.37,19.37,0,0,1-9.57-2.4,18.08,18.08,0,0,1-6.82-6.54,17.41,17.41,0,0,1-2.52-9,17.67,17.67,0,0,1,2.48-9.13,18,18,0,0,1,6.82-6.69,19,19,0,0,1,9.61-2.47,19.8,19.8,0,0,1,7,1.2,18.8,18.8,0,0,1,5.77,3.42,17.52,17.52,0,0,1,2.73,2.93,17.94,17.94,0,0,1,1.93,3.31,17,17,0,0,1,1.14,3.56,18.39,18.39,0,0,1,.38,3.68,18,18,0,0,1-1,6,17.52,17.52,0,0,1-3.13,5.45,18.7,18.7,0,0,1-5,4.16A19.26,19.26,0,0,1,71.32,117Zm-5-18a6.4,6.4,0,0,0,1.46,4.34A4.47,4.47,0,0,0,71.32,105a6.65,6.65,0,0,0,1-.16c2.25-.46,3.55-2,3.9-4.52a12.06,12.06,0,0,0,.13-1.41,5.59,5.59,0,0,0-.84-3.12,4.64,4.64,0,0,0-8.3,0A6,6,0,0,0,66.32,99Z"/><path d="M95.41,114.74a7.11,7.11,0,0,1-2.06-5.11V88.16A6.92,6.92,0,0,1,100.4,81l5.62,3.5v-.25a5.17,5.17,0,0,1,.9-.66,16.59,16.59,0,0,1,8.68-2.68,17,17,0,0,1,3.05.34,14.18,14.18,0,0,1,5.5,2.4,12,12,0,0,1,3.62,4.22A11.39,11.39,0,0,1,129,93.09v16.54a7,7,0,0,1-.95,3.62,7.25,7.25,0,0,1-2.57,2.59,7.2,7.2,0,0,1-8.68-1.06,6.84,6.84,0,0,1-2.12-5.09V96.27a3.29,3.29,0,0,0-1.06-2.5,3.2,3.2,0,0,0-2.5-1.15,3.3,3.3,0,0,0-2.49,1,3.78,3.78,0,0,0-1.1,2.62v13.36a6.94,6.94,0,0,1-2.12,5.11,6.71,6.71,0,0,1-5,2A7,7,0,0,1,95.41,114.74Z"/><path d="M134.79,114.74a7.11,7.11,0,0,1-2.06-5.11V88.16A6.92,6.92,0,0,1,139.78,81l5.62,3.5v-.25a5.17,5.17,0,0,1,.9-.66A16.59,16.59,0,0,1,155,80.92a17,17,0,0,1,3.05.34,14.18,14.18,0,0,1,5.5,2.4,12,12,0,0,1,3.62,4.22,11.39,11.39,0,0,1,1.24,5.21v16.54a7,7,0,0,1-.95,3.62,7.25,7.25,0,0,1-2.57,2.59,7.2,7.2,0,0,1-8.68-1.06,6.84,6.84,0,0,1-2.12-5.09V96.27a3.29,3.29,0,0,0-1.06-2.5,3.2,3.2,0,0,0-2.5-1.15,3.3,3.3,0,0,0-2.49,1,3.78,3.78,0,0,0-1.1,2.62v13.36a6.94,6.94,0,0,1-2.12,5.11,6.71,6.71,0,0,1-5,2A7,7,0,0,1,134.79,114.74Z"/><path d="M208.87,96.58c0,2.08-.45,3.55-1.35,4.4s-2.38,1.28-4.46,1.28H186.43a15.47,15.47,0,0,0,1.15,1.22,7.07,7.07,0,0,0,1.74,1,9.75,9.75,0,0,0,2.23.53,23.39,23.39,0,0,0,3.4.21,24.37,24.37,0,0,0,4.9-.91,16.1,16.1,0,0,1,3.21-.56,5.54,5.54,0,0,1,4,1.47,4.82,4.82,0,0,1,1.52,3.62,4.67,4.67,0,0,1-.13,1.21,6.31,6.31,0,0,1-1.08,2.13,7.1,7.1,0,0,1-1.93,1.67,19.52,19.52,0,0,1-3.39,1.51,33.42,33.42,0,0,1-9.7,1.4,25.56,25.56,0,0,1-8.53-1.36,19.25,19.25,0,0,1-6.67-3.85,16.5,16.5,0,0,1-4.21-5.87,18.51,18.51,0,0,1-1.43-7.36,17,17,0,0,1,1.57-6.75,17.24,17.24,0,0,1,4-5.56,18.57,18.57,0,0,1,6-3.67A20.67,20.67,0,0,1,190.58,81a19.67,19.67,0,0,1,9.52,2.47,18.5,18.5,0,0,1,4.51,3.7,18.14,18.14,0,0,1,3,4.64A13,13,0,0,1,208.87,96.58ZM186.55,95.3h7.62a2.71,2.71,0,0,0-.06-.62c-.32-2.06-1.76-3.09-4.34-3.09a4.25,4.25,0,0,0-3.09,3.15A2.2,2.2,0,0,0,186.55,95.3Z"/><path d="M214.83,109.38a17.74,17.74,0,0,1-3.59-10.61A16.29,16.29,0,0,1,212.42,93a18.85,18.85,0,0,1,3.15-5.32A20.49,20.49,0,0,1,218.32,85a18,18,0,0,1,5.46-2.8,22.39,22.39,0,0,1,6.62-.92,27.53,27.53,0,0,1,3,.13q10.68,1.1,10.68,8.74A5.85,5.85,0,0,1,242,93.9a6.48,6.48,0,0,1-4.25,1.4,5.83,5.83,0,0,1-1.09-.12l-.31-.06-1.66-.38-.84-.19-1.34-.28a9,9,0,0,0-1.72-.12,5.62,5.62,0,0,0-4,1.39,4.83,4.83,0,0,0-1.5,3.73,4.93,4.93,0,0,0,.69,2.35,5.06,5.06,0,0,0,1.78,1.67,5.66,5.66,0,0,0,2.84.72,12.64,12.64,0,0,0,2-.19h.19l2.25-.53a14.89,14.89,0,0,1,2.43-.31,6.5,6.5,0,0,1,4.92,1.87,7.17,7.17,0,0,1,1.79,5.15,6.16,6.16,0,0,1-1.78,3.57,10,10,0,0,1-4.46,2.36,27.18,27.18,0,0,1-7.3.84,22.6,22.6,0,0,1-9.22-2A16.78,16.78,0,0,1,214.83,109.38Z"/><path d="M245.34,83a6.34,6.34,0,0,1,4.37-1.65h.63V78.3a7.19,7.19,0,0,1,2.12-5.15,6.77,6.77,0,0,1,5-2.06,6.93,6.93,0,0,1,5.06,2.12,7.56,7.56,0,0,1,2.12,5.24v2.94h.81a6,6,0,0,1,6,6,5.3,5.3,0,0,1-.19,1.4,5.36,5.36,0,0,1-.57,1.39,7.43,7.43,0,0,1-.89,1.23,6.32,6.32,0,0,1-4.37,1.94h-.88v16.22a7,7,0,0,1-2.12,5.18,6.58,6.58,0,0,1-5,2.09,6.8,6.8,0,0,1-5-2.09,7.29,7.29,0,0,1-2.13-5.24V93.21h-.5a6.3,6.3,0,0,1-4.61-1.93,5.37,5.37,0,0,1-1.66-4A5.7,5.7,0,0,1,245.34,83Z"/><path d="M273.46,77.36a7.34,7.34,0,0,1-2.19-5.43,7.6,7.6,0,0,1,2.25-5.43A7.82,7.82,0,0,1,276,64.88a7.26,7.26,0,0,1,8.11,1.75A7.48,7.48,0,0,1,286.22,72a7.29,7.29,0,0,1-2.15,5.37,7.62,7.62,0,0,1-10.61,0Zm5.3,39.47a7.08,7.08,0,0,1-7.08-7.14V88.16A7.08,7.08,0,0,1,278.83,81a7.06,7.06,0,0,1,3.55,1A7.36,7.36,0,0,1,285,84.6a7.06,7.06,0,0,1,1,3.62v21.41a7,7,0,0,1-2.09,5.11A6.88,6.88,0,0,1,278.76,116.83Z"/><path d="M308.1,117a19.37,19.37,0,0,1-9.57-2.4,18.08,18.08,0,0,1-6.82-6.54,17.41,17.41,0,0,1-2.52-9,17.67,17.67,0,0,1,2.48-9.13,18,18,0,0,1,6.82-6.69,19,19,0,0,1,9.61-2.47,19.7,19.7,0,0,1,6.95,1.2,18.73,18.73,0,0,1,5.78,3.42,17.52,17.52,0,0,1,2.73,2.93,17.94,17.94,0,0,1,1.93,3.31,17,17,0,0,1,1.14,3.56,18.39,18.39,0,0,1,.38,3.68,18,18,0,0,1-1.05,6,17.35,17.35,0,0,1-3.14,5.45,18.5,18.5,0,0,1-5,4.16A19.26,19.26,0,0,1,308.1,117Zm-5-18a6.45,6.45,0,0,0,1.45,4.34A4.5,4.5,0,0,0,308.1,105a6.65,6.65,0,0,0,1-.16c2.25-.46,3.55-2,3.9-4.52a12.06,12.06,0,0,0,.13-1.41,5.59,5.59,0,0,0-.84-3.12,4.64,4.64,0,0,0-8.3,0A5.91,5.91,0,0,0,303.1,99Z"/><path d="M332.19,114.74a7.11,7.11,0,0,1-2.06-5.11V88.16A6.92,6.92,0,0,1,337.18,81l5.62,3.5v-.25a5.17,5.17,0,0,1,.9-.66,16.55,16.55,0,0,1,8.67-2.68,17,17,0,0,1,3.06.34,14.07,14.07,0,0,1,5.49,2.4,11.75,11.75,0,0,1,3.62,4.22,11.27,11.27,0,0,1,1.25,5.21v16.54a7,7,0,0,1-1,3.62,7.25,7.25,0,0,1-2.57,2.59,7.2,7.2,0,0,1-8.68-1.06,6.84,6.84,0,0,1-2.12-5.09V96.27a3.29,3.29,0,0,0-1.06-2.5,3.2,3.2,0,0,0-2.5-1.15,3.3,3.3,0,0,0-2.49,1,3.78,3.78,0,0,0-1.1,2.62v13.36a6.94,6.94,0,0,1-2.12,5.11,6.71,6.71,0,0,1-5,2A7,7,0,0,1,332.19,114.74Z"/><path d="M391.26,114.09a9.76,9.76,0,0,1-3.33-3,7.12,7.12,0,0,1-.89-3.74,7,7,0,0,1,1.06-3.56,5.36,5.36,0,0,1,4.56-2.68,10.14,10.14,0,0,1,2.25.25l2.8.75,2.56.65,1.84.44.69.19c.46.06.82.12,1.09.18a13.17,13.17,0,0,0,2.25.22,5.16,5.16,0,0,0,1.78-.28,4.87,4.87,0,0,0,1.53-.68,1.4,1.4,0,0,0,.59-1.1,1.25,1.25,0,0,0-.65-1.09l-.5-.19-1.22-.43-.81-.25-3.4-.85-.66-.12-4.21-1.22a21.65,21.65,0,0,1-5.87-2.43,11.67,11.67,0,0,1-4-4.34,12.17,12.17,0,0,1-1.42-5.8,14.1,14.1,0,0,1,3.78-9.55,17,17,0,0,1,5.33-3.87,23.37,23.37,0,0,1,7.37-2.06,30.16,30.16,0,0,1,3.34-.19,24.87,24.87,0,0,1,6.83.94,17,17,0,0,1,5.38,2.45,6.48,6.48,0,0,1,2.36,3.38,9.36,9.36,0,0,1,.31,2.25,5.69,5.69,0,0,1-1,3.43,6,6,0,0,1-2.14,2,5.83,5.83,0,0,1-2.85.66,14.58,14.58,0,0,1-4-.63l-.5-.18-1.84-.6-.78-.18-1.78-.44-.91-.22-.62-.12-.36,0-.48,0a4.09,4.09,0,0,0-2.44.53,1.42,1.42,0,0,0-.56,1.1.82.82,0,0,0,.37.68,3.36,3.36,0,0,0,1,.44l1.22.34.44.13,1.28.31,2.12.5,4.21,1.22A31.4,31.4,0,0,1,418,89.44a13.46,13.46,0,0,1,3,2.1,13.26,13.26,0,0,1,2.25,2.77,12.23,12.23,0,0,1,1.35,3.15,13,13,0,0,1,.44,3.4,14.15,14.15,0,0,1-3.59,9.33q-5.49,6.65-16.22,6.64c-.55,0-1.46,0-2.75-.12Q394.9,116.28,391.26,114.09Z"/><path d="M429.61,130.47a7.11,7.11,0,0,1-2.06-5.12V88.1a6.75,6.75,0,0,1,2.1-5,7.09,7.09,0,0,1,5.14-2l5.55,3.18v-.31A13,13,0,0,1,448.77,81a15.62,15.62,0,0,1,4.82.75A15.46,15.46,0,0,1,458,84.07a15.15,15.15,0,0,1,4.29,4.74,19.68,19.68,0,0,1,2.42,6.74,22.88,22.88,0,0,1,.35,3.53,16.89,16.89,0,0,1-.47,4,18.08,18.08,0,0,1-3.75,8.08A15.83,15.83,0,0,1,454,116a17.14,17.14,0,0,1-5.5.94,15.28,15.28,0,0,1-5.49-1l-.72-.25-.62-.28v10a7,7,0,0,1-2.12,5.11,6.7,6.7,0,0,1-4.9,2.09A6.62,6.62,0,0,1,429.61,130.47Zm11.76-31.14a5.92,5.92,0,0,0,1.39,4,4.34,4.34,0,0,0,3.38,1.51,4.19,4.19,0,0,0,3.47-1.74,8.17,8.17,0,0,0,1.34-5,5.52,5.52,0,0,0-1.33-3,4.34,4.34,0,0,0-2.57-1.39,5.73,5.73,0,0,0-4.14,1.49A5.37,5.37,0,0,0,441.37,99.33Z"/><path d="M475.26,116.83a6.79,6.79,0,0,1-5-2.07,6.89,6.89,0,0,1-2.07-5.07V72.62a6.77,6.77,0,0,1,1-3.5,7,7,0,0,1,2.57-2.57,7.48,7.48,0,0,1,3.59-1,7,7,0,0,1,3.62,1,7.22,7.22,0,0,1,2.57,2.61,6.92,6.92,0,0,1,1,3.57V83A20,20,0,0,1,485,82a21.46,21.46,0,0,1,6.27-1,14.44,14.44,0,0,1,5.2.9,11.7,11.7,0,0,1,4,2.48A11,11,0,0,1,503,88.16a12.94,12.94,0,0,1,.92,4.87v16.78a7.17,7.17,0,0,1-7.27,7.24,7.3,7.3,0,0,1-5-2.24,7,7,0,0,1-2-5.06V96.27a3.64,3.64,0,0,0-1-2.51,3.26,3.26,0,0,0-2.43-1.14,3.6,3.6,0,0,0-2.56,1,3.37,3.37,0,0,0-1.09,2.56v13.54a7.09,7.09,0,0,1-3.62,6.16A7.22,7.22,0,0,1,475.26,116.83Z"/><path d="M544.34,96.58c0,2.08-.44,3.55-1.34,4.4s-2.38,1.28-4.46,1.28H521.91a15.47,15.47,0,0,0,1.15,1.22,7.21,7.21,0,0,0,1.73,1A10,10,0,0,0,527,105a23.39,23.39,0,0,0,3.4.21,24.37,24.37,0,0,0,4.9-.91,16,16,0,0,1,3.21-.56,5.54,5.54,0,0,1,4,1.47,4.82,4.82,0,0,1,1.51,3.62,4.75,4.75,0,0,1-.12,1.21,6.31,6.31,0,0,1-1.08,2.13,7.25,7.25,0,0,1-1.93,1.67,19.52,19.52,0,0,1-3.39,1.51,33.42,33.42,0,0,1-9.7,1.4,25.62,25.62,0,0,1-8.54-1.36,19.21,19.21,0,0,1-6.66-3.85,16.5,16.5,0,0,1-4.21-5.87A18.51,18.51,0,0,1,507,98.33,17.66,17.66,0,0,1,512.59,86a18.73,18.73,0,0,1,6-3.67A20.67,20.67,0,0,1,526.06,81a19.67,19.67,0,0,1,9.52,2.47,19.07,19.07,0,0,1,7.56,8.34A12.75,12.75,0,0,1,544.34,96.58ZM522,95.3h7.62a2.21,2.21,0,0,0-.07-.62q-.47-3.09-4.33-3.09a4.25,4.25,0,0,0-3.09,3.15A1.83,1.83,0,0,0,522,95.3Z"/><path d="M554.39,116.71a7,7,0,0,1-5-2,6.57,6.57,0,0,1-2.09-5V88.16A7.14,7.14,0,0,1,554.39,81L561,85.47v-.31l.37-.47.78-.81a7.86,7.86,0,0,1,5.43-2.74,5.54,5.54,0,0,1,1.78.25,6.47,6.47,0,0,1,3.17,1.81,6,6,0,0,1,1.63,3.09,13.25,13.25,0,0,1,.13,1.56,5.48,5.48,0,0,1-1.56,3.91,12.19,12.19,0,0,1-5,2.79l-.6.22-.68.28a15.89,15.89,0,0,0-2.61,1.28,5.15,5.15,0,0,0-1.53,1.47,5.33,5.33,0,0,0-.71,2,19.07,19.07,0,0,0-.21,3.2v6.27a7.64,7.64,0,0,1-.93,3.73,7.22,7.22,0,0,1-2.56,2.7A6.78,6.78,0,0,1,554.39,116.71Z"/><path d="M610,96.58c0,2.08-.45,3.55-1.34,4.4s-2.39,1.28-4.47,1.28H587.53a14.55,14.55,0,0,0,1.16,1.22,7,7,0,0,0,1.73,1,9.75,9.75,0,0,0,2.23.53,23.39,23.39,0,0,0,3.4.21,24.37,24.37,0,0,0,4.9-.91,16.1,16.1,0,0,1,3.21-.56,5.53,5.53,0,0,1,4,1.47,4.82,4.82,0,0,1,1.52,3.62,4.27,4.27,0,0,1-.13,1.21,6.47,6.47,0,0,1-1.07,2.13,7.3,7.3,0,0,1-1.94,1.67,19.72,19.72,0,0,1-3.38,1.51,33.53,33.53,0,0,1-9.71,1.4,25.56,25.56,0,0,1-8.53-1.36,19.34,19.34,0,0,1-6.67-3.85,16.5,16.5,0,0,1-4.21-5.87,18.51,18.51,0,0,1-1.43-7.36,17,17,0,0,1,1.57-6.75,17.24,17.24,0,0,1,4-5.56,18.57,18.57,0,0,1,6-3.67A20.67,20.67,0,0,1,591.68,81a19.67,19.67,0,0,1,9.52,2.47,19,19,0,0,1,7.57,8.34A13.15,13.15,0,0,1,610,96.58ZM587.66,95.3h7.61a2.71,2.71,0,0,0-.06-.62q-.47-3.09-4.34-3.09a4.25,4.25,0,0,0-3.09,3.15A2.08,2.08,0,0,0,587.66,95.3Z"/><path class="cls-1" d="M257.93,4.62c-69.88,0-131.8,18.49-170.07,46.94a11.47,11.47,0,0,1,8,10.93,11.75,11.75,0,0,1-.12,1.58C132.23,33.54,196.19,13.31,269,13.31c74.38,0,139.53,21.12,175.6,52.75C409.5,29.55,339.09,4.62,257.93,4.62Z"/><circle class="cls-2" cx="84.37" cy="62.49" r="11.48"/><circle class="cls-3" cx="436.44" cy="62.49" r="11.48"/></svg>