<svg id="Layer_1" data-name="Layer 1" xmlns="http://www.w3.org/2000/svg" viewBox="0 0 57.74 13.42"><defs><style>.cls-1{fill:#299fc7;}.cls-2{fill:#c62935;}.cls-3{fill:#2b9c2f;}</style></defs><title>logo 12</title><path d="M1.31,10.34A2.34,2.34,0,0,1,1,9.66,2,2,0,0,1,.82,9,1.87,1.87,0,0,1,1,8.27a2.18,2.18,0,0,1,.38-.66A2.18,2.18,0,0,1,2.79,6.8a2.74,2.74,0,0,1,.48,0,2.56,2.56,0,0,1,.58.07A1.91,1.91,0,0,1,4.28,7a.91.91,0,0,1,.25.27.61.61,0,0,1,.08.3A.56.56,0,0,1,4.49,8a.5.5,0,0,1-.19.17.54.54,0,0,1-.24.05H3.85A2.61,2.61,0,0,1,3.43,8a1.39,1.39,0,0,0-.32,0,.88.88,0,0,0-.59.2A1.06,1.06,0,0,0,2.17,9a1.23,1.23,0,0,0,0,.19,1.28,1.28,0,0,0,.16.43.64.64,0,0,0,.29.25.84.84,0,0,0,.4.09,1.92,1.92,0,0,0,.69-.14h.06a.85.85,0,0,1,.23,0,.55.55,0,0,1,.45.19.55.55,0,0,1,.15.37.65.65,0,0,1-.13.38,1.16,1.16,0,0,1-.58.4,1.94,1.94,0,0,1-.72.12,3.42,3.42,0,0,1-.45,0,2.12,2.12,0,0,1-1.09-.48A3.8,3.8,0,0,1,1.31,10.34Z"/><path d="M6.61,11.23a1.82,1.82,0,0,1-.9-.22,1.71,1.71,0,0,1-.88-1.46,1.64,1.64,0,0,1,.24-.86,1.68,1.68,0,0,1,.64-.63,1.83,1.83,0,0,1,.9-.23A1.75,1.75,0,0,1,7.26,8a1.64,1.64,0,0,1,.54.32,1.66,1.66,0,0,1,.26.27,1.92,1.92,0,0,1,.18.31,1.33,1.33,0,0,1,.1.34,1.32,1.32,0,0,1,0,.34A1.71,1.71,0,0,1,8,10.61a2,2,0,0,1-.47.39A1.89,1.89,0,0,1,6.61,11.23ZM6.14,9.54a.61.61,0,0,0,.13.41.47.47,0,0,0,.34.16l.09,0a.43.43,0,0,0,.36-.42c0-.06,0-.11,0-.13A.56.56,0,0,0,7,9.24a.44.44,0,0,0-.78,0A.61.61,0,0,0,6.14,9.54Z"/><path d="M8.87,11a.66.66,0,0,1-.2-.48v-2a.66.66,0,0,1,.19-.48.64.64,0,0,1,.47-.19l.53.33v0l.08-.06a1.66,1.66,0,0,1,.82-.25l.28,0a1.29,1.29,0,0,1,.52.23,1.14,1.14,0,0,1,.34.39A1.07,1.07,0,0,1,12,9v1.55a.64.64,0,0,1-.09.34.69.69,0,0,1-.24.24.61.61,0,0,1-.34.1.69.69,0,0,1-.48-.19.66.66,0,0,1-.2-.48V9.29a.29.29,0,0,0-.1-.23A.27.27,0,0,0,10.34,9a.32.32,0,0,0-.23.09.38.38,0,0,0-.11.25v1.25a.62.62,0,0,1-.2.48.6.6,0,0,1-.46.19A.64.64,0,0,1,8.87,11Z"/><path d="M12.56,11a.66.66,0,0,1-.2-.48v-2a.63.63,0,0,1,.2-.48A.61.61,0,0,1,13,7.86l.52.33v0l.09-.06a1.59,1.59,0,0,1,.81-.25l.29,0a1.31,1.31,0,0,1,.51.23,1.14,1.14,0,0,1,.34.39,1.07,1.07,0,0,1,.12.49v1.55a.64.64,0,0,1-.09.34.69.69,0,0,1-.24.24.59.59,0,0,1-.34.1.73.73,0,0,1-.48-.19.65.65,0,0,1-.19-.48V9.29a.33.33,0,0,0-.1-.23A.29.29,0,0,0,14,9,.32.32,0,0,0,13.8,9a.36.36,0,0,0-.1.25v1.25a.66.66,0,0,1-.2.48.68.68,0,0,1-.94,0Z"/><path d="M19.5,9.32a.57.57,0,0,1-.12.41.62.62,0,0,1-.42.12H17.4l.11.12a.65.65,0,0,0,.16.09.81.81,0,0,0,.21,0l.32,0a2.62,2.62,0,0,0,.46-.08A1.27,1.27,0,0,1,19,10a.54.54,0,0,1,.38.14.46.46,0,0,1,.14.34s0,.09,0,.11a.63.63,0,0,1-.1.2.77.77,0,0,1-.19.16l-.31.14a3,3,0,0,1-.52.11l-.39,0a2.53,2.53,0,0,1-.8-.12,1.87,1.87,0,0,1-.63-.37,1.53,1.53,0,0,1-.39-.55A1.74,1.74,0,0,1,16,9.48a1.71,1.71,0,0,1,.15-.63,1.52,1.52,0,0,1,.38-.52A1.5,1.5,0,0,1,17.09,8a1.78,1.78,0,0,1,.7-.13,1.87,1.87,0,0,1,.89.23,1.57,1.57,0,0,1,.42.35,1.91,1.91,0,0,1,.29.43A1.14,1.14,0,0,1,19.5,9.32ZM17.41,9.2h.71V9.14c0-.19-.17-.29-.41-.29a.42.42,0,0,0-.29.3A.11.11,0,0,0,17.41,9.2Z"/><path d="M20.06,10.52a1.7,1.7,0,0,1-.34-1A1.55,1.55,0,0,1,19.84,9a1.77,1.77,0,0,1,.29-.5,1.84,1.84,0,0,1,.26-.24A1.45,1.45,0,0,1,20.9,8a2,2,0,0,1,.62-.09h.28c.67.07,1,.34,1,.82a.53.53,0,0,1-.19.35.6.6,0,0,1-.4.13h-.13l-.16,0-.07,0-.13,0h-.16a.53.53,0,0,0-.38.13.48.48,0,0,0-.14.35.48.48,0,0,0,.07.22.61.61,0,0,0,.16.16.6.6,0,0,0,.27.07l.19,0h0L22,10l.23,0a.64.64,0,0,1,.46.17.69.69,0,0,1,.17.49.59.59,0,0,1-.17.33.83.83,0,0,1-.42.22,2.22,2.22,0,0,1-.68.08,2,2,0,0,1-.87-.18A1.62,1.62,0,0,1,20.06,10.52Z"/><path d="M22.92,8.05a.61.61,0,0,1,.41-.15h.06V7.61a.7.7,0,0,1,.2-.49.62.62,0,0,1,.46-.19.66.66,0,0,1,.48.2.71.71,0,0,1,.2.49V7.9h.07a.54.54,0,0,1,.4.16.54.54,0,0,1,.17.4.63.63,0,0,1-.07.26l-.09.11A.59.59,0,0,1,24.8,9h-.08v1.52a.66.66,0,0,1-.2.48.62.62,0,0,1-.47.2.65.65,0,0,1-.47-.2.7.7,0,0,1-.2-.49V9h0a.62.62,0,0,1-.44-.18.5.5,0,0,1-.15-.37A.54.54,0,0,1,22.92,8.05Z"/><path d="M25.56,7.52A.69.69,0,0,1,25.35,7a.73.73,0,0,1,.21-.51.65.65,0,0,1,.23-.15.63.63,0,0,1,.27-.06.72.72,0,0,1,.69.72.67.67,0,0,1-.2.51.71.71,0,0,1-1,0Zm.5,3.7a.68.68,0,0,1-.67-.67v-2a.67.67,0,0,1,.09-.34.66.66,0,0,1,.58-.33.63.63,0,0,1,.33.09.6.6,0,0,1,.25.25.64.64,0,0,1,.09.34v2a.68.68,0,0,1-.67.68Z"/><path d="M28.8,11.23a1.81,1.81,0,0,1-.89-.22,1.73,1.73,0,0,1-.64-.62A1.55,1.55,0,0,1,27,9.55a1.73,1.73,0,0,1,.23-.86,1.84,1.84,0,0,1,.64-.63,1.88,1.88,0,0,1,.9-.23,1.76,1.76,0,0,1,.66.12,1.64,1.64,0,0,1,.54.32,1.27,1.27,0,0,1,.25.27,1.44,1.44,0,0,1,.19.31,1.91,1.91,0,0,1,.1.34,1.32,1.32,0,0,1,0,.34,1.63,1.63,0,0,1-.1.57,1.63,1.63,0,0,1-.77.9A1.84,1.84,0,0,1,28.8,11.23Zm-.46-1.69a.61.61,0,0,0,.13.41.44.44,0,0,0,.33.16l.1,0a.43.43,0,0,0,.36-.42.78.78,0,0,0,0-.13.48.48,0,0,0-.08-.3.43.43,0,0,0-.77,0A.52.52,0,0,0,28.34,9.54Z"/><path d="M31.06,11a.65.65,0,0,1-.19-.48v-2a.62.62,0,0,1,.19-.48.64.64,0,0,1,.47-.19l.53.33v0l.08-.06A1.66,1.66,0,0,1,33,7.85l.28,0a1.29,1.29,0,0,1,.52.23,1.14,1.14,0,0,1,.34.39,1.06,1.06,0,0,1,.11.49v1.55a.64.64,0,0,1-.09.34.62.62,0,0,1-.24.24.56.56,0,0,1-.33.1.69.69,0,0,1-.48-.19.66.66,0,0,1-.2-.48V9.29a.29.29,0,0,0-.1-.23A.27.27,0,0,0,32.54,9,.34.34,0,0,0,32.3,9a.42.42,0,0,0-.1.25v1.25A.62.62,0,0,1,32,11a.6.6,0,0,1-.46.19A.66.66,0,0,1,31.06,11Z"/><path d="M36.6,11a1,1,0,0,1-.31-.28.63.63,0,0,1-.08-.35.59.59,0,0,1,.1-.33.48.48,0,0,1,.42-.25.75.75,0,0,1,.21,0l.27.07.24.06.17,0,.06,0,.11,0L38,10a.41.41,0,0,0,.16,0l.15-.06a.16.16,0,0,0,0-.1.13.13,0,0,0-.06-.11h0l-.11,0-.08,0-.31-.08h-.07l-.39-.11a2.17,2.17,0,0,1-.55-.23,1.15,1.15,0,0,1-.38-.41,1.11,1.11,0,0,1-.13-.54,1.27,1.27,0,0,1,.09-.47,1.45,1.45,0,0,1,.26-.43,1.74,1.74,0,0,1,.5-.36,2.2,2.2,0,0,1,.69-.19,1.72,1.72,0,0,1,.32,0,2.3,2.3,0,0,1,.64.09,1.37,1.37,0,0,1,.5.23.56.56,0,0,1,.22.31.88.88,0,0,1,0,.21.58.58,0,0,1-.09.33.71.71,0,0,1-.2.19.6.6,0,0,1-.27.06,1.35,1.35,0,0,1-.37-.06l0,0-.17,0-.08,0-.16,0L38,8h-.14a.37.37,0,0,0-.22,0,.12.12,0,0,0-.06.1.1.1,0,0,0,0,.07l.1,0,.11,0h0l.12,0,.2.05.39.11a3.49,3.49,0,0,1,.53.2,1.1,1.1,0,0,1,.28.2,1.09,1.09,0,0,1,.21.26,1.08,1.08,0,0,1,.13.29,1.12,1.12,0,0,1,0,.32,1.32,1.32,0,0,1-.34.88,1.87,1.87,0,0,1-1.52.62h-.26A2.37,2.37,0,0,1,36.6,11Z"/><path d="M40.2,12.5A.69.69,0,0,1,40,12V8.52a.67.67,0,0,1,.68-.66l.52.3v0A1.22,1.22,0,0,1,42,7.86a1.33,1.33,0,0,1,.45.07,1.53,1.53,0,0,1,.82.66,1.9,1.9,0,0,1,.23.63,2.48,2.48,0,0,1,0,.33,1.64,1.64,0,0,1,0,.38,1.73,1.73,0,0,1-.35.75,1.58,1.58,0,0,1-.65.46,1.82,1.82,0,0,1-.52.08,1.44,1.44,0,0,1-.51-.09l-.07,0-.06,0V12a.62.62,0,0,1-.2.48.63.63,0,0,1-.92,0Zm1.1-2.92a.53.53,0,0,0,.13.38.42.42,0,0,0,.32.14.39.39,0,0,0,.32-.17.71.71,0,0,0,.13-.47.49.49,0,0,0-.13-.27.36.36,0,0,0-.24-.13.48.48,0,0,0-.53.52Z"/><path d="M44.48,11.22A.65.65,0,0,1,44,11a.63.63,0,0,1-.19-.47V7.07a.61.61,0,0,1,.08-.32.6.6,0,0,1,.25-.25.63.63,0,0,1,.33-.09.64.64,0,0,1,.34.09.66.66,0,0,1,.33.58v1a1.33,1.33,0,0,1,.24-.1,1.81,1.81,0,0,1,.58-.1,1.3,1.3,0,0,1,.49.09.93.93,0,0,1,.37.23.88.88,0,0,1,.24.36,1.14,1.14,0,0,1,.09.46v1.57a.68.68,0,0,1-.68.68A.68.68,0,0,1,46,11a.65.65,0,0,1-.19-.48V9.29a.29.29,0,0,0-.1-.23A.3.3,0,0,0,45.49,9a.36.36,0,0,0-.24.09.37.37,0,0,0-.1.24v1.27a.65.65,0,0,1-.34.58A.63.63,0,0,1,44.48,11.22Z"/><path d="M51,9.32a.57.57,0,0,1-.12.41.62.62,0,0,1-.42.12H48.85L49,10a.65.65,0,0,0,.16.09.81.81,0,0,0,.21,0l.32,0a2.62,2.62,0,0,0,.46-.08,1.27,1.27,0,0,1,.3-.06.54.54,0,0,1,.38.14.46.46,0,0,1,.14.34.31.31,0,0,1,0,.11.63.63,0,0,1-.1.2.93.93,0,0,1-.18.16l-.32.14a3,3,0,0,1-.52.11l-.39,0a2.53,2.53,0,0,1-.8-.12,2,2,0,0,1-.63-.37,1.53,1.53,0,0,1-.39-.55,1.74,1.74,0,0,1-.14-.69,1.71,1.71,0,0,1,.15-.63A1.52,1.52,0,0,1,48,8.33,1.5,1.5,0,0,1,48.54,8a1.78,1.78,0,0,1,.7-.13,1.87,1.87,0,0,1,.89.23,1.57,1.57,0,0,1,.42.35,1.63,1.63,0,0,1,.29.43A1.14,1.14,0,0,1,51,9.32ZM48.86,9.2h.72s0,0,0-.06c0-.19-.17-.29-.41-.29a.42.42,0,0,0-.29.3A.43.43,0,0,1,48.86,9.2Z"/><path d="M51.9,11.21a.69.69,0,0,1-.48-.19.63.63,0,0,1-.19-.47v-2a.63.63,0,0,1,.19-.47.66.66,0,0,1,.48-.2l.61.42v0l0,0,.07-.08a.75.75,0,0,1,.51-.26.47.47,0,0,1,.17,0,.56.56,0,0,1,.29.16.65.65,0,0,1,.16.29c0,.07,0,.12,0,.15a.51.51,0,0,1-.15.37,1.16,1.16,0,0,1-.46.26l-.06,0s0,0-.06,0l-.25.12a.44.44,0,0,0-.14.13.84.84,0,0,0-.07.19,2.11,2.11,0,0,0,0,.3v.59a.85.85,0,0,1-.08.35.72.72,0,0,1-.24.25A.84.84,0,0,1,51.9,11.21Z"/><path d="M57.11,9.32a.57.57,0,0,1-.13.41.59.59,0,0,1-.42.12H55l.11.12.16.09a.81.81,0,0,0,.21,0l.32,0a2.62,2.62,0,0,0,.46-.08,1.27,1.27,0,0,1,.3-.06.52.52,0,0,1,.38.14.46.46,0,0,1,.14.34.31.31,0,0,1,0,.11.47.47,0,0,1-.1.2.93.93,0,0,1-.18.16,2.69,2.69,0,0,1-.32.14,3.1,3.1,0,0,1-.51.11l-.4,0a2.53,2.53,0,0,1-.8-.12,1.83,1.83,0,0,1-.62-.37,1.45,1.45,0,0,1-.4-.55,1.73,1.73,0,0,1-.13-.69,1.52,1.52,0,0,1,.14-.63,1.66,1.66,0,0,1,.38-.52A1.59,1.59,0,0,1,54.69,8a1.82,1.82,0,0,1,.7-.13,1.87,1.87,0,0,1,.89.23,1.79,1.79,0,0,1,.43.35,1.86,1.86,0,0,1,.28.43A1.37,1.37,0,0,1,57.11,9.32ZM55,9.2h.72a.13.13,0,0,0,0-.06c0-.19-.16-.29-.4-.29a.4.4,0,0,0-.29.3Z"/><path class="cls-1" d="M24.1.7C17.55.7,11.75,2.43,8.16,5.1a1.08,1.08,0,0,1,.75,1s0,.1,0,.15c3.42-2.86,9.41-4.76,16.24-4.76s13.08,2,16.46,5C38.31,3,31.71.7,24.1.7Z"/><circle class="cls-2" cx="7.83" cy="6.12" r="1.08"/><circle class="cls-3" cx="40.84" cy="6.12" r="1.08"/></svg>